<?xml version="1.0" encoding="UTF-8" standalone="no"?>
<svg
   xmlns:dc="http://purl.org/dc/elements/1.1/"
   xmlns:cc="http://creativecommons.org/ns#"
   xmlns:rdf="http://www.w3.org/1999/02/22-rdf-syntax-ns#"
   xmlns:svg="http://www.w3.org/2000/svg"
   xmlns="http://www.w3.org/2000/svg"
   xmlns:sodipodi="http://sodipodi.sourceforge.net/DTD/sodipodi-0.dtd"
   xmlns:inkscape="http://www.inkscape.org/namespaces/inkscape"
   version="1.1"
   id="tennis_network"
   viewBox="0 0 750.00001 500.00001"
   height="500"
   width="750"
   inkscape:version="0.91 r13725"
   sodipodi:docname="network.svg">
  <sodipodi:namedview
     pagecolor="#ffffff"
     bordercolor="#666666"
     borderopacity="1"
     objecttolerance="10"
     gridtolerance="10"
     guidetolerance="10"
     inkscape:pageopacity="0"
     inkscape:pageshadow="2"
     inkscape:window-width="1870"
     inkscape:window-height="1035"
     id="namedview199"
     showgrid="false"
     inkscape:zoom="0.41333333"
     inkscape:cx="599.69979"
     inkscape:cy="395.20054"
     inkscape:window-x="0"
     inkscape:window-y="1"
     inkscape:window-maximized="1"
     inkscape:current-layer="tennis_network" />
  <defs
     id="defs4" />
  <metadata
     id="metadata7">
    <rdf:RDF>
      <cc:Work
         rdf:about="">
        <dc:format>image/svg+xml</dc:format>
        <dc:type
           rdf:resource="http://purl.org/dc/dcmitype/StillImage" />
        <dc:title />
      </cc:Work>
    </rdf:RDF>
  </metadata>
  <path
     style="fill:none;fill-rule:evenodd;stroke:#646464;stroke-width:1;stroke-linecap:butt;stroke-linejoin:miter;stroke-miterlimit:4;stroke-dasharray:none;stroke-opacity:1"
     d="m 277.74849,474.74267 c -4.32194,-73.42757 59.06736,-66.26415 96.87362,-70.35712"
     id="rec_4_3"
     inkscape:connector-curvature="0" />
  <path
     id="ser_4_3"
     d="M 277.79715,474.74267 C 262.34402,401.3151 181.48719,404.25315 130.01184,413.57794"
     style="fill:none;fill-rule:evenodd;stroke:#646464;stroke-width:1;stroke-linecap:butt;stroke-linejoin:miter;stroke-miterlimit:4;stroke-dasharray:none;stroke-opacity:1"
     inkscape:connector-curvature="0" />
  <path
     id="ser_3_4"
     d="m 470.83731,474.74267 c 4.32194,-73.42757 -58.36027,-65.55704 -96.87362,-71.06422"
     style="fill:none;fill-rule:evenodd;stroke:#646464;stroke-width:1;stroke-linecap:butt;stroke-linejoin:miter;stroke-miterlimit:4;stroke-dasharray:none;stroke-opacity:1"
     inkscape:connector-curvature="0"
     inkscape:label="#ser_3_4" />
  <path
     style="fill:none;fill-rule:evenodd;stroke:#646464;stroke-width:1;stroke-linecap:butt;stroke-linejoin:miter;stroke-miterlimit:4;stroke-dasharray:none;stroke-opacity:1"
     d="m 470.78864,474.74267 c 4.62943,-73.19201 84.84816,-69.82723 147.78531,-61.16473"
     id="rec_3_4"
     inkscape:connector-curvature="0" />
  <path
     id="ser_3_3"
     d="m 374.67076,404.74819 c 4.32194,73.42757 -58.71382,65.20349 -96.87362,61.16473"
     style="fill:none;fill-rule:evenodd;stroke:#646464;stroke-width:1;stroke-linecap:butt;stroke-linejoin:miter;stroke-miterlimit:4;stroke-dasharray:none;stroke-opacity:1"
     inkscape:connector-curvature="0" />
  <path
     style="fill:none;fill-rule:evenodd;stroke:#646464;stroke-width:1;stroke-linecap:butt;stroke-linejoin:miter;stroke-miterlimit:4;stroke-dasharray:none;stroke-opacity:1"
     d="m 375.32923,404.74819 c -4.32194,73.42757 58.71382,65.20349 96.87362,61.16473"
     id="rec_3_3"
     inkscape:connector-curvature="0" />
  <path
     id="rec_3_2"
     d="m 277.74849,343.25108 c -4.32194,73.42757 58.71382,65.20349 96.87362,61.16473"
     style="fill:none;fill-rule:evenodd;stroke:#646464;stroke-width:1;stroke-linecap:butt;stroke-linejoin:miter;stroke-miterlimit:4;stroke-dasharray:none;stroke-opacity:1"
     inkscape:connector-curvature="0" />
  <path
     style="fill:none;fill-rule:evenodd;stroke:#646464;stroke-width:1;stroke-linecap:butt;stroke-linejoin:miter;stroke-miterlimit:4;stroke-dasharray:none;stroke-opacity:1"
     d="m 573.43093,281.75393 c -4.32194,73.42757 14.16609,123.18625 52.32589,119.14749"
     id="rec_1_3"
     inkscape:connector-curvature="0" />
  <path
     id="rec_2_3"
     d="m 473.02178,343.25108 c -4.32194,73.42757 59.68103,70.48952 147.78531,61.16473"
     style="fill:none;fill-rule:evenodd;stroke:#646464;stroke-width:1;stroke-linecap:butt;stroke-linejoin:miter;stroke-miterlimit:4;stroke-dasharray:none;stroke-opacity:1"
     inkscape:connector-curvature="0" />
  <path
     id="rec_0_3"
     d="m 668.23195,220.2568 c 4.32194,73.42757 -8.50924,183.29032 -46.66904,179.25156"
     style="fill:none;fill-rule:evenodd;stroke:#646464;stroke-width:1;stroke-linecap:butt;stroke-linejoin:miter;stroke-miterlimit:4;stroke-dasharray:none;stroke-opacity:1"
     inkscape:connector-curvature="0" />
  <path
     id="ser_2_3"
     d="m 472.2515,343.25105 c 4.32194,73.42757 -58.71382,65.20349 -96.87362,61.16473"
     style="fill:none;fill-rule:evenodd;stroke:#646464;stroke-width:1;stroke-linecap:butt;stroke-linejoin:miter;stroke-miterlimit:4;stroke-dasharray:none;stroke-opacity:1"
     inkscape:connector-curvature="0" />
  <path
     id="ser_3_1"
     d="m 177.388,281.75393 c 4.32194,73.42757 -14.16609,123.18625 -52.32589,119.14749"
     style="fill:none;fill-rule:evenodd;stroke:#646464;stroke-width:1;stroke-linecap:butt;stroke-linejoin:miter;stroke-miterlimit:4;stroke-dasharray:none;stroke-opacity:1"
     inkscape:connector-curvature="0" />
  <path
     style="fill:none;fill-rule:evenodd;stroke:#646464;stroke-width:1;stroke-linecap:butt;stroke-linejoin:miter;stroke-miterlimit:4;stroke-dasharray:none;stroke-opacity:1"
     d="m 277.79715,343.25108 c 4.32194,73.42757 -59.68103,70.48952 -147.78531,61.16473"
     id="ser_3_2"
     inkscape:connector-curvature="0" />
  <path
     style="fill:none;fill-rule:evenodd;stroke:#646464;stroke-width:1;stroke-linecap:butt;stroke-linejoin:miter;stroke-miterlimit:4;stroke-dasharray:none;stroke-opacity:1"
     d="m 374.67076,281.75393 c 4.32194,73.42757 -58.71382,65.20349 -96.87362,61.16473"
     id="ser_2_2"
     inkscape:connector-curvature="0" />
  <path
     id="rec_2_2"
     d="m 375.32923,281.75393 c -4.32194,73.42757 58.71382,65.20349 96.87362,61.16473"
     style="fill:none;fill-rule:evenodd;stroke:#646464;stroke-width:1;stroke-linecap:butt;stroke-linejoin:miter;stroke-miterlimit:4;stroke-dasharray:none;stroke-opacity:1"
     inkscape:connector-curvature="0" />
  <path
     id="ser_1_2"
     d="m 472.2515,220.2568 c 4.32194,73.42757 -58.71382,65.20349 -96.87362,61.16473"
     style="fill:none;fill-rule:evenodd;stroke:#646464;stroke-width:1;stroke-linecap:butt;stroke-linejoin:miter;stroke-miterlimit:4;stroke-dasharray:none;stroke-opacity:1"
     inkscape:connector-curvature="0" />
  <path
     style="fill:none;fill-rule:evenodd;stroke:#646464;stroke-width:1;stroke-linecap:butt;stroke-linejoin:miter;stroke-miterlimit:4;stroke-dasharray:none;stroke-opacity:1"
     d="m 472.90997,220.2568 c -4.32194,73.42757 58.71382,65.20349 96.87362,61.16473"
     id="rec_1_2"
     inkscape:connector-curvature="0" />
  <path
     style="fill:none;fill-rule:evenodd;stroke:#646464;stroke-width:1;stroke-linecap:butt;stroke-linejoin:miter;stroke-miterlimit:4;stroke-dasharray:none;stroke-opacity:1"
     d="m 180.16777,281.75393 c -4.32194,73.42757 58.71382,65.20349 96.87362,61.16473"
     id="rec_3_1"
     inkscape:connector-curvature="0" />
  <path
     style="fill:none;fill-rule:evenodd;stroke:#646464;stroke-width:1;stroke-linecap:butt;stroke-linejoin:miter;stroke-miterlimit:4;stroke-dasharray:none;stroke-opacity:1"
     d="m 277.09001,220.25683 c 4.32194,73.42757 -58.71382,65.20349 -96.87362,61.16473"
     id="ser_2_1"
     inkscape:connector-curvature="0" />
  <path
     id="rec_2_1"
     d="m 277.74849,220.25683 c -4.32194,73.42757 58.71382,65.20349 96.87362,61.16473"
     style="fill:none;fill-rule:evenodd;stroke:#646464;stroke-width:1;stroke-linecap:butt;stroke-linejoin:miter;stroke-miterlimit:4;stroke-dasharray:none;stroke-opacity:1"
     inkscape:connector-curvature="0" />
  <path
     style="fill:none;fill-rule:evenodd;stroke:#646464;stroke-width:1;stroke-linecap:butt;stroke-linejoin:miter;stroke-miterlimit:4;stroke-dasharray:none;stroke-opacity:1"
     d="m 374.67076,158.75966 c 4.32194,73.42757 -58.71382,65.20349 -96.87362,61.16473"
     id="ser_1_1"
     inkscape:connector-curvature="0" />
  <path
     id="rec_1_1"
     d="m 375.32923,158.75966 c -4.32194,73.42757 58.71382,65.20349 96.87362,61.16473"
     style="fill:none;fill-rule:evenodd;stroke:#646464;stroke-width:1;stroke-linecap:butt;stroke-linejoin:miter;stroke-miterlimit:4;stroke-dasharray:none;stroke-opacity:1"
     inkscape:connector-curvature="0" />
  <path
     id="ser_1_0"
     d="m 277.09003,97.26253 c 4.32194,73.42757 -58.71382,65.20349 -96.87362,61.16473"
     style="fill:none;fill-rule:evenodd;stroke:#646464;stroke-width:1;stroke-linecap:butt;stroke-linejoin:miter;stroke-miterlimit:4;stroke-dasharray:none;stroke-opacity:1"
     inkscape:connector-curvature="0" />
  <path
     style="fill:none;fill-rule:evenodd;stroke:#646464;stroke-width:1;stroke-linecap:butt;stroke-linejoin:miter;stroke-miterlimit:4;stroke-dasharray:none;stroke-opacity:1"
     d="m 277.7485,97.26253 c -4.32194,73.42757 58.71382,65.20349 96.87362,61.16473"
     id="rec_1_0"
     inkscape:connector-curvature="0" />
  <path
     inkscape:connector-curvature="0"
     style="fill:none;fill-rule:evenodd;stroke:#646464;stroke-width:1;stroke-linecap:butt;stroke-linejoin:miter;stroke-miterlimit:4;stroke-dasharray:none;stroke-opacity:1"
     d="m 374.76658,35.76537 c 4.32194,73.42757 -58.71382,65.20349 -96.87362,61.16473"
     id="ser_0_0"
     inkscape:label="#ser_0_0" />
  <path
     inkscape:connector-curvature="0"
     id="rec_0_0"
     d="m 375.42505,35.76537 c -4.32194,73.42757 58.71382,65.20349 96.87362,61.16473"
     style="fill:none;fill-rule:evenodd;stroke:#646464;stroke-width:1;stroke-linecap:butt;stroke-linejoin:miter;stroke-miterlimit:4;stroke-dasharray:none;stroke-opacity:1" />
  <circle
     style="opacity:1;fill:#82d2af;fill-opacity:1;stroke:none;stroke-width:5;stroke-miterlimit:4;stroke-dasharray:none;stroke-opacity:1"
     id="sb_0_0"
     cx="375"
     cy="34.715599"
     r="31.345188" />
  <path
     style="font-style:normal;font-variant:normal;font-weight:bold;font-stretch:normal;font-size:medium;line-height:125%;font-family:sans-serif;-inkscape-font-specification:'sans-serif Bold';letter-spacing:0px;word-spacing:0px;fill:#184330;fill-opacity:1;stroke:none;stroke-width:1px;stroke-linecap:butt;stroke-linejoin:miter;stroke-opacity:1"
     d="m 364.12018,34.69886 q 0,-1.87988 -0.35584,-2.64526 -0.34912,-0.7721 -1.18164,-0.7721 -0.83252,0 -1.18835,0.7721 -0.35584,0.76538 -0.35584,2.64526 0,1.90002 0.35584,2.67883 0.35583,0.77881 1.18835,0.77881 0.82581,0 1.18164,-0.77881 0.35584,-0.77881 0.35584,-2.67883 z m 2.58484,0.0201 q 0,2.49085 -1.07422,3.84705 -1.07422,1.34948 -3.0481,1.34948 -1.98059,0 -3.05481,-1.34948 -1.07422,-1.3562 -1.07422,-3.84705 0,-2.49756 1.07422,-3.84704 1.07423,-1.35621 3.05481,-1.35621 1.97388,0 3.0481,1.35621 1.07422,1.34948 1.07422,3.84704 z"
     id="path5156"
     inkscape:connector-curvature="0" />
  <path
     style="font-style:normal;font-variant:normal;font-weight:bold;font-stretch:normal;font-size:medium;line-height:125%;font-family:sans-serif;-inkscape-font-specification:'sans-serif Bold';letter-spacing:0px;word-spacing:0px;fill:#184330;fill-opacity:1;stroke:none;stroke-width:1px;stroke-linecap:butt;stroke-linejoin:miter;stroke-opacity:1"
     d="m 372.88177,34.78614 4.21632,0 0,1.95374 -4.21632,0 0,-1.95374 z"
     id="path5158"
     inkscape:connector-curvature="0" />
  <path
     style="font-style:normal;font-variant:normal;font-weight:bold;font-stretch:normal;font-size:medium;line-height:125%;font-family:sans-serif;-inkscape-font-specification:'sans-serif Bold';letter-spacing:0px;word-spacing:0px;fill:#184330;fill-opacity:1;stroke:none;stroke-width:1px;stroke-linecap:butt;stroke-linejoin:miter;stroke-opacity:1"
     d="m 388.9615,34.69886 q 0,-1.87988 -0.35584,-2.64526 -0.34913,-0.7721 -1.18165,-0.7721 -0.83252,0 -1.18836,0.7721 -0.35583,0.76538 -0.35583,2.64526 0,1.90002 0.35583,2.67883 0.35584,0.77881 1.18836,0.77881 0.82581,0 1.18165,-0.77881 0.35584,-0.77881 0.35584,-2.67883 z m 2.58483,0.0201 q 0,2.49085 -1.07421,3.84705 -1.07423,1.34948 -3.0481,1.34948 -1.98059,0 -3.05481,-1.34948 -1.07422,-1.3562 -1.07422,-3.84705 0,-2.49756 1.07422,-3.84704 1.07422,-1.35621 3.05481,-1.35621 1.97388,0 3.0481,1.35621 1.07421,1.34948 1.07421,3.84704 z"
     id="path5160"
     inkscape:connector-curvature="0" />
  <circle
     r="31.345188"
     cy="96.21273"
     cx="277.41925"
     id="sb_1_0"
     style="opacity:1;fill:#82d2af;fill-opacity:1;stroke:none;stroke-width:5;stroke-miterlimit:4;stroke-dasharray:none;stroke-opacity:1" />
  <path
     style="font-style:normal;font-variant:normal;font-weight:bold;font-stretch:normal;font-size:medium;line-height:125%;font-family:sans-serif;-inkscape-font-specification:'sans-serif Bold';letter-spacing:0px;word-spacing:0px;fill:#184330;fill-opacity:1;stroke:none;stroke-width:1px;stroke-linecap:butt;stroke-linejoin:miter;stroke-opacity:1"
     d="m 256.59955,99.43205 2.28272,0 0,-6.47888 -2.34314,0.4834 0,-1.75903 2.3297,-0.4834 2.45727,0 0,8.23791 2.28272,0 0,1.78589 -7.00928,0 0,-1.78589 z"
     id="path5147"
     inkscape:connector-curvature="0" />
  <path
     style="font-style:normal;font-variant:normal;font-weight:bold;font-stretch:normal;font-size:medium;line-height:125%;font-family:sans-serif;-inkscape-font-specification:'sans-serif Bold';letter-spacing:0px;word-spacing:0px;fill:#184330;fill-opacity:1;stroke:none;stroke-width:1px;stroke-linecap:butt;stroke-linejoin:miter;stroke-opacity:1"
     d="m 266.00567,91.19414 6.42517,0 0,1.90002 -4.36401,0 0,1.55091 q 0.29541,-0.0806 0.59082,-0.12085 0.30212,-0.047 0.62439,-0.047 1.83288,0 2.85339,0.9198 1.02051,0.91309 1.02051,2.55127 0,1.62476 -1.1145,2.54456 -1.10779,0.91979 -3.08167,0.91979 -0.85266,0 -1.69189,-0.16784 -0.83252,-0.16113 -1.65833,-0.49683 l 0,-2.0343 q 0.8191,0.46997 1.55091,0.70496 0.73853,0.23498 1.38977,0.23498 0.93994,0 1.47705,-0.45654 0.54382,-0.46326 0.54382,-1.24878 0,-0.79224 -0.54382,-1.24878 -0.5371,-0.45654 -1.47705,-0.45654 -0.55726,0 -1.18836,0.1477 -0.6311,0.14099 -1.3562,0.44312 l 0,-5.63965 z"
     id="path5149"
     inkscape:connector-curvature="0" />
  <path
     style="font-style:normal;font-variant:normal;font-weight:bold;font-stretch:normal;font-size:medium;line-height:125%;font-family:sans-serif;-inkscape-font-specification:'sans-serif Bold';letter-spacing:0px;word-spacing:0px;fill:#184330;fill-opacity:1;stroke:none;stroke-width:1px;stroke-linecap:butt;stroke-linejoin:miter;stroke-opacity:1"
     d="m 279.63483,96.28325 4.21631,0 0,1.95374 -4.21631,0 0,-1.95374 z"
     id="path5151"
     inkscape:connector-curvature="0" />
  <path
     style="font-style:normal;font-variant:normal;font-weight:bold;font-stretch:normal;font-size:medium;line-height:125%;font-family:sans-serif;-inkscape-font-specification:'sans-serif Bold';letter-spacing:0px;word-spacing:0px;fill:#184330;fill-opacity:1;stroke:none;stroke-width:1px;stroke-linecap:butt;stroke-linejoin:miter;stroke-opacity:1"
     d="m 295.71453,96.19597 q 0,-1.87988 -0.35583,-2.64526 -0.34912,-0.7721 -1.18164,-0.7721 -0.83252,0 -1.18836,0.7721 -0.35583,0.76538 -0.35583,2.64526 0,1.90002 0.35583,2.67883 0.35584,0.77881 1.18836,0.77881 0.8258,0 1.18164,-0.77881 0.35583,-0.77881 0.35583,-2.67883 z m 2.58484,0.0201 q 0,2.49085 -1.07422,3.84705 -1.07422,1.34948 -3.04809,1.34948 -1.98059,0 -3.05481,-1.34948 -1.07422,-1.3562 -1.07422,-3.84705 0,-2.49756 1.07422,-3.84704 1.07423,-1.35621 3.05481,-1.35621 1.97387,0 3.04809,1.35621 1.07422,1.34948 1.07422,3.84704 z"
     id="path5153"
     inkscape:connector-curvature="0" />
  <path
     style="fill:none;fill-rule:evenodd;stroke:#646464;stroke-width:1;stroke-linecap:butt;stroke-linejoin:miter;stroke-miterlimit:4;stroke-dasharray:none;stroke-opacity:1"
     d="m 82.58703,220.2568 c -4.32194,73.42757 8.50924,183.29032 46.66904,179.25156"
     id="ser_3_0"
     inkscape:connector-curvature="0" />
  <path
     id="rec_3_0"
     d="m 82.58703,220.2568 c -4.32194,73.42757 58.71382,65.20349 96.87362,61.16473"
     style="fill:none;fill-rule:evenodd;stroke:#646464;stroke-width:1;stroke-linecap:butt;stroke-linejoin:miter;stroke-miterlimit:4;stroke-dasharray:none;stroke-opacity:1"
     inkscape:connector-curvature="0" />
  <path
     id="ser_2_0"
     d="m 179.5093,158.75966 c 4.32194,73.42757 -58.71382,65.20349 -96.87362,61.16473"
     style="fill:none;fill-rule:evenodd;stroke:#646464;stroke-width:1;stroke-linecap:butt;stroke-linejoin:miter;stroke-miterlimit:4;stroke-dasharray:none;stroke-opacity:1"
     inkscape:connector-curvature="0" />
  <path
     style="fill:none;fill-rule:evenodd;stroke:#646464;stroke-width:1;stroke-linecap:butt;stroke-linejoin:miter;stroke-miterlimit:4;stroke-dasharray:none;stroke-opacity:1"
     d="m 180.16777,158.75966 c -4.32194,73.42757 58.71382,65.20349 96.87362,61.16473"
     id="rec_2_0"
     inkscape:connector-curvature="0" />
  <circle
     style="opacity:1;fill:#82d2af;fill-opacity:1;stroke:none;stroke-width:5;stroke-miterlimit:4;stroke-dasharray:none;stroke-opacity:1"
     id="sb_2_2"
     cx="375"
     cy="280.70419"
     r="31.345188" />
  <path
     style="font-style:normal;font-variant:normal;font-weight:bold;font-stretch:normal;font-size:medium;line-height:125%;font-family:sans-serif;-inkscape-font-specification:'sans-serif Bold';letter-spacing:0px;word-spacing:0px;fill:#184330;fill-opacity:1;stroke:none;stroke-width:1px;stroke-linecap:butt;stroke-linejoin:miter;stroke-opacity:1"
     d="m 354.50927,280.30474 q 1.0138,0.26184 1.53749,0.91309 0.53039,0.64453 0.53039,1.64489 0,1.49048 -1.14135,2.26929 -1.14136,0.77209 -3.33008,0.77209 -0.77211,0 -1.5509,-0.12756 -0.77211,-0.12085 -1.53078,-0.36926 l 0,-1.99402 q 0.7251,0.36255 1.43678,0.55054 0.71838,0.18127 1.40991,0.18127 1.02722,0 1.57105,-0.35583 0.55054,-0.35584 0.55054,-1.02051 0,-0.68482 -0.56397,-1.03394 -0.55725,-0.35583 -1.65161,-0.35583 l -1.03394,0 0,-1.66504 1.08765,0 q 0.97351,0 1.4502,-0.30212 0.47668,-0.30884 0.47668,-0.93323 0,-0.57739 -0.46326,-0.89295 -0.46325,-0.31555 -1.3092,-0.31555 -0.62439,0 -1.26221,0.14099 -0.63782,0.14099 -1.26892,0.41626 l 0,-1.89331 q 0.76538,-0.21484 1.51733,-0.32226 0.75196,-0.10743 1.47706,-0.10743 1.95373,0 2.92053,0.64454 0.97351,0.63781 0.97351,1.92688 0,0.87951 -0.46326,1.44348 -0.46326,0.55725 -1.36963,0.78552 z"
     id="path5047"
     inkscape:connector-curvature="0" />
  <path
     style="font-style:normal;font-variant:normal;font-weight:bold;font-stretch:normal;font-size:medium;line-height:125%;font-family:sans-serif;-inkscape-font-specification:'sans-serif Bold';letter-spacing:0px;word-spacing:0px;fill:#184330;fill-opacity:1;stroke:none;stroke-width:1px;stroke-linecap:butt;stroke-linejoin:miter;stroke-opacity:1"
     d="m 363.98925,280.68743 q 0,-1.87988 -0.35583,-2.64526 -0.34912,-0.7721 -1.18164,-0.7721 -0.83252,0 -1.18836,0.7721 -0.35583,0.76538 -0.35583,2.64526 0,1.90002 0.35583,2.67883 0.35584,0.77881 1.18836,0.77881 0.8258,0 1.18164,-0.77881 0.35583,-0.77881 0.35583,-2.67883 z m 2.58484,0.0201 q 0,2.49085 -1.07422,3.84705 -1.07422,1.34948 -3.04809,1.34948 -1.98059,0 -3.05481,-1.34948 -1.07422,-1.3562 -1.07422,-3.84705 0,-2.49756 1.07422,-3.84704 1.07422,-1.35621 3.05481,-1.35621 1.97387,0 3.04809,1.35621 1.07422,1.34948 1.07422,3.84704 z"
     id="path5049"
     inkscape:connector-curvature="0" />
  <path
     style="font-style:normal;font-variant:normal;font-weight:bold;font-stretch:normal;font-size:medium;line-height:125%;font-family:sans-serif;-inkscape-font-specification:'sans-serif Bold';letter-spacing:0px;word-spacing:0px;fill:#184330;fill-opacity:1;stroke:none;stroke-width:1px;stroke-linecap:butt;stroke-linejoin:miter;stroke-opacity:1"
     d="m 372.75085,280.77471 4.21632,0 0,1.95374 -4.21632,0 0,-1.95374 z"
     id="path5051"
     inkscape:connector-curvature="0" />
  <path
     style="font-style:normal;font-variant:normal;font-weight:bold;font-stretch:normal;font-size:medium;line-height:125%;font-family:sans-serif;-inkscape-font-specification:'sans-serif Bold';letter-spacing:0px;word-spacing:0px;fill:#184330;fill-opacity:1;stroke:none;stroke-width:1px;stroke-linecap:butt;stroke-linejoin:miter;stroke-opacity:1"
     d="m 388.91113,280.30474 q 1.01379,0.26184 1.53747,0.91309 0.5304,0.64453 0.5304,1.64489 0,1.49048 -1.14136,2.26929 -1.14136,0.77209 -3.33008,0.77209 -0.77209,0 -1.5509,-0.12756 -0.77209,-0.12085 -1.53076,-0.36926 l 0,-1.99402 q 0.7251,0.36255 1.43677,0.55054 0.71838,0.18127 1.40991,0.18127 1.02722,0 1.57104,-0.35583 0.55054,-0.35584 0.55054,-1.02051 0,-0.68482 -0.56396,-1.03394 -0.55726,-0.35583 -1.65162,-0.35583 l -1.03393,0 0,-1.66504 1.08765,0 q 0.97351,0 1.4502,-0.30212 0.47669,-0.30884 0.47669,-0.93323 0,-0.57739 -0.46326,-0.89295 -0.46326,-0.31555 -1.30921,-0.31555 -0.62439,0 -1.2622,0.14099 -0.63782,0.14099 -1.26892,0.41626 l 0,-1.89331 q 0.76538,-0.21484 1.51733,-0.32226 0.75195,-0.10743 1.47705,-0.10743 1.95374,0 2.92053,0.64454 0.97351,0.63781 0.97351,1.92688 0,0.87951 -0.46325,1.44348 -0.46326,0.55725 -1.36963,0.78552 z"
     id="path5053"
     inkscape:connector-curvature="0" />
  <path
     style="font-style:normal;font-variant:normal;font-weight:bold;font-stretch:normal;font-size:medium;line-height:125%;font-family:sans-serif;-inkscape-font-specification:'sans-serif Bold';letter-spacing:0px;word-spacing:0px;fill:#184330;fill-opacity:1;stroke:none;stroke-width:1px;stroke-linecap:butt;stroke-linejoin:miter;stroke-opacity:1"
     d="m 398.39111,280.68743 q 0,-1.87988 -0.35584,-2.64526 -0.34912,-0.7721 -1.18164,-0.7721 -0.83252,0 -1.18835,0.7721 -0.35584,0.76538 -0.35584,2.64526 0,1.90002 0.35584,2.67883 0.35583,0.77881 1.18835,0.77881 0.82581,0 1.18164,-0.77881 0.35584,-0.77881 0.35584,-2.67883 z m 2.58484,0.0201 q 0,2.49085 -1.07422,3.84705 -1.07422,1.34948 -3.0481,1.34948 -1.98059,0 -3.05481,-1.34948 -1.07422,-1.3562 -1.07422,-3.84705 0,-2.49756 1.07422,-3.84704 1.07422,-1.35621 3.05481,-1.35621 1.97388,0 3.0481,1.35621 1.07422,1.34948 1.07422,3.84704 z"
     id="path5055"
     inkscape:connector-curvature="0" />
  <circle
     style="opacity:1;fill:#82d2af;fill-opacity:1;stroke:none;stroke-width:5;stroke-miterlimit:4;stroke-dasharray:none;stroke-opacity:1"
     id="circle4225"
     cx="472.58075"
     cy="96.21273"
     r="31.345188" />
  <text
     sodipodi:linespacing="125%"
     xml:space="preserve"
     style="font-style:normal;font-variant:normal;font-weight:bold;font-stretch:normal;font-size:16.54972458px;line-height:125%;font-family:sans-serif;-inkscape-font-specification:'sans-serif Bold';letter-spacing:0px;word-spacing:0px;fill:#184330;fill-opacity:1;stroke:none;stroke-width:1px;stroke-linecap:butt;stroke-linejoin:miter;stroke-opacity:1"
     x="451.87341"
     y="102.23708"
     id="text4227"><tspan
       id="tspan4229"
       x="451.87341"
       y="102.23708">0 - 0</tspan></text>
  <path
     style="fill:none;fill-rule:evenodd;stroke:#646464;stroke-width:1;stroke-linecap:butt;stroke-linejoin:miter;stroke-miterlimit:4;stroke-dasharray:none;stroke-opacity:1"
     d="m 569.83224,281.75393 c 4.32194,73.42757 -58.71382,65.20349 -96.87362,61.16473"
     id="ser_1_3"
     inkscape:connector-curvature="0" />
  <path
     id="ser_0_3"
     d="m 667.413,220.2568 c 4.32194,73.42757 -58.71382,65.20349 -96.87362,61.16473"
     style="fill:none;fill-rule:evenodd;stroke:#646464;stroke-width:1;stroke-linecap:butt;stroke-linejoin:miter;stroke-miterlimit:4;stroke-dasharray:none;stroke-opacity:1"
     inkscape:connector-curvature="0" />
  <path
     id="ser_0_2"
     d="m 569.83224,158.75966 c 4.32194,73.42757 -58.71382,65.20349 -96.87362,61.16473"
     style="fill:none;fill-rule:evenodd;stroke:#646464;stroke-width:1;stroke-linecap:butt;stroke-linejoin:miter;stroke-miterlimit:4;stroke-dasharray:none;stroke-opacity:1"
     inkscape:connector-curvature="0" />
  <path
     style="fill:none;fill-rule:evenodd;stroke:#646464;stroke-width:1;stroke-linecap:butt;stroke-linejoin:miter;stroke-miterlimit:4;stroke-dasharray:none;stroke-opacity:1"
     d="m 570.49071,158.75966 c -4.32194,73.42757 58.71382,65.20349 96.87362,61.16473"
     id="rec_0_2"
     inkscape:connector-curvature="0" />
  <path
     style="fill:none;fill-rule:evenodd;stroke:#646464;stroke-width:1;stroke-linecap:butt;stroke-linejoin:miter;stroke-miterlimit:4;stroke-dasharray:none;stroke-opacity:1"
     d="m 472.2515,97.26253 c 4.32194,73.42757 -58.71382,65.20349 -96.87362,61.16473"
     id="ser_0_1"
     inkscape:connector-curvature="0"
     inkscape:label="#ser_0_1" />
  <path
     id="rec_0_1"
     d="m 472.90997,97.26253 c -4.32194,73.42757 58.71382,65.20349 96.87362,61.16473"
     style="fill:none;fill-rule:evenodd;stroke:#646464;stroke-width:1;stroke-linecap:butt;stroke-linejoin:miter;stroke-miterlimit:4;stroke-dasharray:none;stroke-opacity:1"
     inkscape:connector-curvature="0" />
  <circle
     r="31.345188"
     cy="157.70985"
     cx="375"
     id="sb_1_1"
     style="opacity:1;fill:#82d2af;fill-opacity:1;stroke:none;stroke-width:5;stroke-miterlimit:4;stroke-dasharray:none;stroke-opacity:1" />
  <path
     style="font-style:normal;font-variant:normal;font-weight:bold;font-stretch:normal;font-size:medium;line-height:125%;font-family:sans-serif;-inkscape-font-specification:'sans-serif Bold';letter-spacing:0px;word-spacing:0px;fill:#184330;fill-opacity:1;stroke:none;stroke-width:1px;stroke-linecap:butt;stroke-linejoin:miter;stroke-opacity:1"
     d="m 349.55108,160.83852 2.28272,0 0,-6.47888 -2.34314,0.4834 0,-1.75903 2.32971,-0.4834 2.45727,0 0,8.23791 2.28272,0 0,1.78589 -7.00928,0 0,-1.78589 z"
     id="path5136"
     inkscape:connector-curvature="0" />
  <path
     style="font-style:normal;font-variant:normal;font-weight:bold;font-stretch:normal;font-size:medium;line-height:125%;font-family:sans-serif;-inkscape-font-specification:'sans-serif Bold';letter-spacing:0px;word-spacing:0px;fill:#184330;fill-opacity:1;stroke:none;stroke-width:1px;stroke-linecap:butt;stroke-linejoin:miter;stroke-opacity:1"
     d="m 358.95721,152.60061 6.42517,0 0,1.90002 -4.36401,0 0,1.55091 q 0.29541,-0.0806 0.59082,-0.12085 0.30212,-0.047 0.62439,-0.047 1.83288,0 2.85339,0.9198 1.02051,0.91309 1.02051,2.55127 0,1.62476 -1.1145,2.54456 -1.10779,0.91979 -3.08167,0.91979 -0.85266,0 -1.69189,-0.16784 -0.83252,-0.16113 -1.65833,-0.49683 l 0,-2.0343 q 0.81909,0.46997 1.5509,0.70496 0.73853,0.23498 1.38978,0.23498 0.93994,0 1.47705,-0.45654 0.54382,-0.46326 0.54382,-1.24878 0,-0.79224 -0.54382,-1.24878 -0.53711,-0.45654 -1.47705,-0.45654 -0.55726,0 -1.18836,0.1477 -0.6311,0.14099 -1.3562,0.44312 l 0,-5.63965 z"
     id="path5138"
     inkscape:connector-curvature="0" />
  <path
     style="font-style:normal;font-variant:normal;font-weight:bold;font-stretch:normal;font-size:medium;line-height:125%;font-family:sans-serif;-inkscape-font-specification:'sans-serif Bold';letter-spacing:0px;word-spacing:0px;fill:#184330;fill-opacity:1;stroke:none;stroke-width:1px;stroke-linecap:butt;stroke-linejoin:miter;stroke-opacity:1"
     d="m 372.58636,157.68972 4.21632,0 0,1.95374 -4.21632,0 0,-1.95374 z"
     id="path5140"
     inkscape:connector-curvature="0" />
  <path
     style="font-style:normal;font-variant:normal;font-weight:bold;font-stretch:normal;font-size:medium;line-height:125%;font-family:sans-serif;-inkscape-font-specification:'sans-serif Bold';letter-spacing:0px;word-spacing:0px;fill:#184330;fill-opacity:1;stroke:none;stroke-width:1px;stroke-linecap:butt;stroke-linejoin:miter;stroke-opacity:1"
     d="m 383.95294,160.83852 2.28271,0 0,-6.47888 -2.34314,0.4834 0,-1.75903 2.32971,-0.4834 2.45728,0 0,8.23791 2.28272,0 0,1.78589 -7.00928,0 0,-1.78589 z"
     id="path5142"
     inkscape:connector-curvature="0" />
  <path
     style="font-style:normal;font-variant:normal;font-weight:bold;font-stretch:normal;font-size:medium;line-height:125%;font-family:sans-serif;-inkscape-font-specification:'sans-serif Bold';letter-spacing:0px;word-spacing:0px;fill:#184330;fill-opacity:1;stroke:none;stroke-width:1px;stroke-linecap:butt;stroke-linejoin:miter;stroke-opacity:1"
     d="m 393.35907,152.60061 6.42517,0 0,1.90002 -4.36402,0 0,1.55091 q 0.29541,-0.0806 0.59082,-0.12085 0.30213,-0.047 0.62439,-0.047 1.83289,0 2.8534,0.9198 1.02051,0.91309 1.02051,2.55127 0,1.62476 -1.11451,2.54456 -1.10779,0.91979 -3.08166,0.91979 -0.85266,0 -1.69189,-0.16784 -0.83252,-0.16113 -1.65832,-0.49683 l 0,-2.0343 q 0.81909,0.46997 1.5509,0.70496 0.73853,0.23498 1.38977,0.23498 0.93993,0 1.47705,-0.45654 0.54382,-0.46326 0.54382,-1.24878 0,-0.79224 -0.54382,-1.24878 -0.53711,-0.45654 -1.47705,-0.45654 -0.55725,0 -1.18835,0.1477 -0.63111,0.14099 -1.3562,0.44312 l 0,-5.63965 z"
     id="path5144"
     inkscape:connector-curvature="0" />
  <circle
     style="opacity:1;fill:#82d2af;fill-opacity:1;stroke:none;stroke-width:5;stroke-miterlimit:4;stroke-dasharray:none;stroke-opacity:1"
     id="circle4275"
     cx="179.83853"
     cy="157.70985"
     r="31.345188" />
  <text
     sodipodi:linespacing="125%"
     xml:space="preserve"
     style="font-style:normal;font-variant:normal;font-weight:bold;font-stretch:normal;font-size:16.54972458px;line-height:125%;font-family:sans-serif;-inkscape-font-specification:'sans-serif Bold';letter-spacing:0px;word-spacing:0px;fill:#184330;fill-opacity:1;stroke:none;stroke-width:1px;stroke-linecap:butt;stroke-linejoin:miter;stroke-opacity:1"
     x="159.1312"
     y="163.73421"
     id="text4277"><tspan
       id="tspan4279"
       x="159.1312"
       y="163.73421">0 - 0</tspan></text>
  <circle
     style="opacity:1;fill:#82d2af;fill-opacity:1;stroke:none;stroke-width:5;stroke-miterlimit:4;stroke-dasharray:none;stroke-opacity:1"
     id="sb_0_2"
     cx="570.1615"
     cy="157.70985"
     r="31.345188" />
  <path
     style="font-style:normal;font-variant:normal;font-weight:bold;font-stretch:normal;font-size:medium;line-height:125%;font-family:sans-serif;-inkscape-font-specification:'sans-serif Bold';letter-spacing:0px;word-spacing:0px;fill:#184330;fill-opacity:1;stroke:none;stroke-width:1px;stroke-linecap:butt;stroke-linejoin:miter;stroke-opacity:1"
     d="m 554.50141,157.6931 q 0,-1.87988 -0.35584,-2.64526 -0.34912,-0.7721 -1.18164,-0.7721 -0.83252,0 -1.18835,0.7721 -0.35584,0.76538 -0.35584,2.64526 0,1.90002 0.35584,2.67883 0.35583,0.77881 1.18835,0.77881 0.82581,0 1.18164,-0.77881 0.35584,-0.77881 0.35584,-2.67883 z m 2.58484,0.0201 q 0,2.49085 -1.07422,3.84705 -1.07422,1.34948 -3.0481,1.34948 -1.98059,0 -3.05481,-1.34948 -1.07422,-1.3562 -1.07422,-3.84705 0,-2.49756 1.07422,-3.84704 1.07422,-1.35621 3.05481,-1.35621 1.97388,0 3.0481,1.35621 1.07422,1.34948 1.07422,3.84704 z"
     id="path5118"
     inkscape:connector-curvature="0" />
  <path
     style="font-style:normal;font-variant:normal;font-weight:bold;font-stretch:normal;font-size:medium;line-height:125%;font-family:sans-serif;-inkscape-font-specification:'sans-serif Bold';letter-spacing:0px;word-spacing:0px;fill:#184330;fill-opacity:1;stroke:none;stroke-width:1px;stroke-linecap:butt;stroke-linejoin:miter;stroke-opacity:1"
     d="m 563.263,157.78038 4.21631,0 0,1.95374 -4.21631,0 0,-1.95374 z"
     id="path5120"
     inkscape:connector-curvature="0" />
  <path
     style="font-style:normal;font-variant:normal;font-weight:bold;font-stretch:normal;font-size:medium;line-height:125%;font-family:sans-serif;-inkscape-font-specification:'sans-serif Bold';letter-spacing:0px;word-spacing:0px;fill:#184330;fill-opacity:1;stroke:none;stroke-width:1px;stroke-linecap:butt;stroke-linejoin:miter;stroke-opacity:1"
     d="m 579.42328,157.31041 q 1.0138,0.26184 1.53748,0.91309 0.53039,0.64453 0.53039,1.64489 0,1.49048 -1.14135,2.26929 -1.14136,0.77209 -3.33008,0.77209 -0.7721,0 -1.55091,-0.12756 -0.77209,-0.12085 -1.53076,-0.36926 l 0,-1.99402 q 0.7251,0.36255 1.43677,0.55054 0.71838,0.18127 1.40991,0.18127 1.02722,0 1.57105,-0.35583 0.55053,-0.35584 0.55053,-1.02051 0,-0.68482 -0.56396,-1.03394 -0.55725,-0.35583 -1.65161,-0.35583 l -1.03394,0 0,-1.66504 1.08765,0 q 0.97351,0 1.45019,-0.30212 0.47669,-0.30884 0.47669,-0.93323 0,-0.57739 -0.46326,-0.89295 -0.46326,-0.31555 -1.3092,-0.31555 -0.62439,0 -1.26221,0.14099 -0.63782,0.14099 -1.26892,0.41626 l 0,-1.89331 q 0.76538,-0.21484 1.51733,-0.32226 0.75196,-0.10743 1.47705,-0.10743 1.95374,0 2.92054,0.64454 0.97351,0.63781 0.97351,1.92688 0,0.87951 -0.46326,1.44348 -0.46326,0.55725 -1.36963,0.78552 z"
     id="path5122"
     inkscape:connector-curvature="0" />
  <path
     style="font-style:normal;font-variant:normal;font-weight:bold;font-stretch:normal;font-size:medium;line-height:125%;font-family:sans-serif;-inkscape-font-specification:'sans-serif Bold';letter-spacing:0px;word-spacing:0px;fill:#184330;fill-opacity:1;stroke:none;stroke-width:1px;stroke-linecap:butt;stroke-linejoin:miter;stroke-opacity:1"
     d="m 588.90326,157.6931 q 0,-1.87988 -0.35583,-2.64526 -0.34912,-0.7721 -1.18164,-0.7721 -0.83252,0 -1.18836,0.7721 -0.35583,0.76538 -0.35583,2.64526 0,1.90002 0.35583,2.67883 0.35584,0.77881 1.18836,0.77881 0.8258,0 1.18164,-0.77881 0.35583,-0.77881 0.35583,-2.67883 z m 2.58484,0.0201 q 0,2.49085 -1.07422,3.84705 -1.07422,1.34948 -3.04809,1.34948 -1.98059,0 -3.05481,-1.34948 -1.07422,-1.3562 -1.07422,-3.84705 0,-2.49756 1.07422,-3.84704 1.07422,-1.35621 3.05481,-1.35621 1.97387,0 3.04809,1.35621 1.07422,1.34948 1.07422,3.84704 z"
     id="path5124"
     inkscape:connector-curvature="0" />
  <circle
     style="opacity:1;fill:#82d2af;fill-opacity:1;stroke:none;stroke-width:5;stroke-miterlimit:4;stroke-dasharray:none;stroke-opacity:1"
     id="sb_2_1"
     cx="277.41925"
     cy="219.20705"
     r="31.345188" />
  <path
     style="font-style:normal;font-variant:normal;font-weight:bold;font-stretch:normal;font-size:medium;line-height:125%;font-family:sans-serif;-inkscape-font-specification:'sans-serif Bold';letter-spacing:0px;word-spacing:0px;fill:#184330;fill-opacity:1;stroke:none;stroke-width:1px;stroke-linecap:butt;stroke-linejoin:miter;stroke-opacity:1"
     d="m 257.07959,218.8076 q 1.0138,0.26184 1.53748,0.91309 0.53039,0.64453 0.53039,1.6449 0,1.49048 -1.14135,2.26928 -1.14136,0.7721 -3.33008,0.7721 -0.7721,0 -1.5509,-0.12756 -0.7721,-0.12085 -1.53077,-0.36927 l 0,-1.99402 q 0.7251,0.36255 1.43677,0.55054 0.71839,0.18128 1.40991,0.18128 1.02723,0 1.57105,-0.35584 0.55054,-0.35583 0.55054,-1.02051 0,-0.68481 -0.56397,-1.03393 -0.55725,-0.35584 -1.65161,-0.35584 l -1.03394,0 0,-1.66504 1.08765,0 q 0.97351,0 1.4502,-0.30212 0.47668,-0.30884 0.47668,-0.93323 0,-0.57739 -0.46326,-0.89294 -0.46325,-0.31555 -1.3092,-0.31555 -0.62439,0 -1.26221,0.14099 -0.63782,0.14099 -1.26892,0.41626 l 0,-1.89331 q 0.76538,-0.21485 1.51734,-0.32227 0.75195,-0.10742 1.47705,-0.10742 1.95373,0 2.92053,0.64453 0.97351,0.63782 0.97351,1.92688 0,0.87952 -0.46326,1.44348 -0.46325,0.55725 -1.36963,0.78552 z"
     id="path5089"
     inkscape:connector-curvature="0" />
  <path
     style="font-style:normal;font-variant:normal;font-weight:bold;font-stretch:normal;font-size:medium;line-height:125%;font-family:sans-serif;-inkscape-font-specification:'sans-serif Bold';letter-spacing:0px;word-spacing:0px;fill:#184330;fill-opacity:1;stroke:none;stroke-width:1px;stroke-linecap:butt;stroke-linejoin:miter;stroke-opacity:1"
     d="m 266.55957,219.19029 q 0,-1.87988 -0.35583,-2.64526 -0.34912,-0.77209 -1.18164,-0.77209 -0.83252,0 -1.18836,0.77209 -0.35583,0.76538 -0.35583,2.64526 0,1.90003 0.35583,2.67884 0.35584,0.77881 1.18836,0.77881 0.8258,0 1.18164,-0.77881 0.35583,-0.77881 0.35583,-2.67884 z m 2.58484,0.0201 q 0,2.49084 -1.07422,3.84704 -1.07421,1.34949 -3.04809,1.34949 -1.98059,0 -3.05481,-1.34949 -1.07422,-1.3562 -1.07422,-3.84704 0,-2.49756 1.07422,-3.84705 1.07422,-1.3562 3.05481,-1.3562 1.97388,0 3.04809,1.3562 1.07422,1.34949 1.07422,3.84705 z"
     id="path5091"
     inkscape:connector-curvature="0" />
  <path
     style="font-style:normal;font-variant:normal;font-weight:bold;font-stretch:normal;font-size:medium;line-height:125%;font-family:sans-serif;-inkscape-font-specification:'sans-serif Bold';letter-spacing:0px;word-spacing:0px;fill:#184330;fill-opacity:1;stroke:none;stroke-width:1px;stroke-linecap:butt;stroke-linejoin:miter;stroke-opacity:1"
     d="m 275.32117,219.27757 4.21631,0 0,1.95374 -4.21631,0 0,-1.95374 z"
     id="path5093"
     inkscape:connector-curvature="0" />
  <path
     style="font-style:normal;font-variant:normal;font-weight:bold;font-stretch:normal;font-size:medium;line-height:125%;font-family:sans-serif;-inkscape-font-specification:'sans-serif Bold';letter-spacing:0px;word-spacing:0px;fill:#184330;fill-opacity:1;stroke:none;stroke-width:1px;stroke-linecap:butt;stroke-linejoin:miter;stroke-opacity:1"
     d="m 286.68775,222.42638 2.28271,0 0,-6.47888 -2.34314,0.48339 0,-1.75903 2.32971,-0.4834 2.45728,0 0,8.23792 2.28271,0 0,1.78589 -7.00927,0 0,-1.78589 z"
     id="path5095"
     inkscape:connector-curvature="0" />
  <path
     style="font-style:normal;font-variant:normal;font-weight:bold;font-stretch:normal;font-size:medium;line-height:125%;font-family:sans-serif;-inkscape-font-specification:'sans-serif Bold';letter-spacing:0px;word-spacing:0px;fill:#184330;fill-opacity:1;stroke:none;stroke-width:1px;stroke-linecap:butt;stroke-linejoin:miter;stroke-opacity:1"
     d="m 296.09388,214.18846 6.42517,0 0,1.90003 -4.36402,0 0,1.5509 q 0.29541,-0.0806 0.59082,-0.12085 0.30213,-0.047 0.62439,-0.047 1.83289,0 2.8534,0.9198 1.0205,0.91309 1.0205,2.55127 0,1.62476 -1.1145,2.54456 -1.10779,0.9198 -3.08166,0.9198 -0.85266,0 -1.6919,-0.16785 -0.83252,-0.16113 -1.65832,-0.49682 l 0,-2.03431 q 0.81909,0.46998 1.5509,0.70496 0.73853,0.23499 1.38977,0.23499 0.93994,0 1.47705,-0.45655 0.54383,-0.46325 0.54383,-1.24878 0,-0.79223 -0.54383,-1.24878 -0.53711,-0.45654 -1.47705,-0.45654 -0.55725,0 -1.18835,0.14771 -0.63111,0.14099 -1.3562,0.44311 l 0,-5.63965 z"
     id="path5097"
     inkscape:connector-curvature="0" />
  <circle
     r="31.345188"
     cy="219.20705"
     cx="472.58075"
     id="sb_1_2"
     style="opacity:1;fill:#82d2af;fill-opacity:1;stroke:none;stroke-width:5;stroke-miterlimit:4;stroke-dasharray:none;stroke-opacity:1" />
  <path
     style="font-style:normal;font-variant:normal;font-weight:bold;font-stretch:normal;font-size:medium;line-height:125%;font-family:sans-serif;-inkscape-font-specification:'sans-serif Bold';letter-spacing:0px;word-spacing:0px;fill:#184330;fill-opacity:1;stroke:none;stroke-width:1px;stroke-linecap:butt;stroke-linejoin:miter;stroke-opacity:1"
     d="m 446.98077,222.42637 2.28272,0 0,-6.47888 -2.34314,0.4834 0,-1.75903 2.32971,-0.4834 2.45727,0 0,8.23791 2.28272,0 0,1.78589 -7.00928,0 0,-1.78589 z"
     id="path5078"
     inkscape:connector-curvature="0" />
  <path
     style="font-style:normal;font-variant:normal;font-weight:bold;font-stretch:normal;font-size:medium;line-height:125%;font-family:sans-serif;-inkscape-font-specification:'sans-serif Bold';letter-spacing:0px;word-spacing:0px;fill:#184330;fill-opacity:1;stroke:none;stroke-width:1px;stroke-linecap:butt;stroke-linejoin:miter;stroke-opacity:1"
     d="m 456.3869,214.18846 6.42517,0 0,1.90002 -4.36401,0 0,1.55091 q 0.29541,-0.0806 0.59082,-0.12085 0.30212,-0.047 0.62439,-0.047 1.83288,0 2.85339,0.9198 1.02051,0.91309 1.02051,2.55127 0,1.62476 -1.1145,2.54456 -1.10779,0.91979 -3.08167,0.91979 -0.85266,0 -1.69189,-0.16784 -0.83252,-0.16113 -1.65833,-0.49683 l 0,-2.0343 q 0.81909,0.46997 1.5509,0.70496 0.73853,0.23498 1.38978,0.23498 0.93994,0 1.47705,-0.45654 0.54382,-0.46326 0.54382,-1.24878 0,-0.79224 -0.54382,-1.24878 -0.53711,-0.45654 -1.47705,-0.45654 -0.55726,0 -1.18836,0.1477 -0.6311,0.14099 -1.3562,0.44312 l 0,-5.63965 z"
     id="path5080"
     inkscape:connector-curvature="0" />
  <path
     style="font-style:normal;font-variant:normal;font-weight:bold;font-stretch:normal;font-size:medium;line-height:125%;font-family:sans-serif;-inkscape-font-specification:'sans-serif Bold';letter-spacing:0px;word-spacing:0px;fill:#184330;fill-opacity:1;stroke:none;stroke-width:1px;stroke-linecap:butt;stroke-linejoin:miter;stroke-opacity:1"
     d="m 470.01605,219.27757 4.21631,0 0,1.95374 -4.21631,0 0,-1.95374 z"
     id="path5082"
     inkscape:connector-curvature="0" />
  <path
     style="font-style:normal;font-variant:normal;font-weight:bold;font-stretch:normal;font-size:medium;line-height:125%;font-family:sans-serif;-inkscape-font-specification:'sans-serif Bold';letter-spacing:0px;word-spacing:0px;fill:#184330;fill-opacity:1;stroke:none;stroke-width:1px;stroke-linecap:butt;stroke-linejoin:miter;stroke-opacity:1"
     d="m 486.17633,218.8076 q 1.01379,0.26184 1.53747,0.91309 0.5304,0.64453 0.5304,1.64489 0,1.49048 -1.14136,2.26929 -1.14136,0.77209 -3.33008,0.77209 -0.77209,0 -1.5509,-0.12756 -0.77209,-0.12085 -1.53076,-0.36926 l 0,-1.99402 q 0.7251,0.36255 1.43677,0.55054 0.71838,0.18127 1.40991,0.18127 1.02722,0 1.57104,-0.35583 0.55054,-0.35584 0.55054,-1.02051 0,-0.68482 -0.56396,-1.03394 -0.55726,-0.35583 -1.65162,-0.35583 l -1.03393,0 0,-1.66504 1.08765,0 q 0.97351,0 1.45019,-0.30212 0.47669,-0.30884 0.47669,-0.93323 0,-0.57739 -0.46326,-0.89295 -0.46326,-0.31555 -1.30921,-0.31555 -0.62439,0 -1.2622,0.14099 -0.63782,0.14099 -1.26892,0.41626 l 0,-1.89331 q 0.76538,-0.21484 1.51733,-0.32226 0.75195,-0.10743 1.47705,-0.10743 1.95374,0 2.92053,0.64454 0.97351,0.63781 0.97351,1.92688 0,0.87951 -0.46325,1.44348 -0.46326,0.55725 -1.36963,0.78552 z"
     id="path5084"
     inkscape:connector-curvature="0" />
  <path
     style="font-style:normal;font-variant:normal;font-weight:bold;font-stretch:normal;font-size:medium;line-height:125%;font-family:sans-serif;-inkscape-font-specification:'sans-serif Bold';letter-spacing:0px;word-spacing:0px;fill:#184330;fill-opacity:1;stroke:none;stroke-width:1px;stroke-linecap:butt;stroke-linejoin:miter;stroke-opacity:1"
     d="m 495.65631,219.19029 q 0,-1.87988 -0.35584,-2.64526 -0.34912,-0.7721 -1.18164,-0.7721 -0.83252,0 -1.18835,0.7721 -0.35584,0.76538 -0.35584,2.64526 0,1.90002 0.35584,2.67883 0.35583,0.77881 1.18835,0.77881 0.82581,0 1.18164,-0.77881 0.35584,-0.77881 0.35584,-2.67883 z m 2.58484,0.0201 q 0,2.49085 -1.07422,3.84705 -1.07422,1.34948 -3.0481,1.34948 -1.98059,0 -3.05481,-1.34948 -1.07422,-1.3562 -1.07422,-3.84705 0,-2.49756 1.07422,-3.84704 1.07422,-1.35621 3.05481,-1.35621 1.97388,0 3.0481,1.35621 1.07422,1.34948 1.07422,3.84704 z"
     id="path5086"
     inkscape:connector-curvature="0" />
  <circle
     r="31.345188"
     cy="219.20705"
     cx="82.25779"
     id="sb_3_0"
     style="opacity:1;fill:#82d2af;fill-opacity:1;stroke:none;stroke-width:5;stroke-miterlimit:4;stroke-dasharray:none;stroke-opacity:1" />
  <path
     style="font-style:normal;font-variant:normal;font-weight:bold;font-stretch:normal;font-size:medium;line-height:125%;font-family:sans-serif;-inkscape-font-specification:'sans-serif Bold';letter-spacing:0px;word-spacing:0px;fill:#184330;fill-opacity:1;stroke:none;stroke-width:1px;stroke-linecap:butt;stroke-linejoin:miter;stroke-opacity:1"
     d="m 65.35563,216.31678 -2.83325,4.19616 2.83325,0 0,-4.19616 z m -0.42969,-2.1283 2.87354,0 0,6.32446 1.43005,0 0,1.87317 -1.43005,0 0,1.82617 -2.44385,0 0,-1.82617 -4.44458,0 0,-2.21558 4.01489,-5.98205 z"
     id="path5100"
     inkscape:connector-curvature="0" />
  <path
     style="font-style:normal;font-variant:normal;font-weight:bold;font-stretch:normal;font-size:medium;line-height:125%;font-family:sans-serif;-inkscape-font-specification:'sans-serif Bold';letter-spacing:0px;word-spacing:0px;fill:#184330;fill-opacity:1;stroke:none;stroke-width:1px;stroke-linecap:butt;stroke-linejoin:miter;stroke-opacity:1"
     d="m 76.17838,219.19031 q 0,-1.87988 -0.35583,-2.64526 -0.34912,-0.7721 -1.18164,-0.7721 -0.83252,0 -1.18836,0.7721 -0.35583,0.76538 -0.35583,2.64526 0,1.90002 0.35583,2.67883 0.35584,0.77881 1.18836,0.77881 0.8258,0 1.18164,-0.77881 0.35583,-0.77881 0.35583,-2.67883 z m 2.58484,0.0201 q 0,2.49085 -1.07422,3.84705 -1.07422,1.34948 -3.04809,1.34948 -1.98059,0 -3.05481,-1.34948 -1.07422,-1.3562 -1.07422,-3.84705 0,-2.49756 1.07422,-3.84704 1.07422,-1.35621 3.05481,-1.35621 1.97387,0 3.04809,1.35621 1.07422,1.34948 1.07422,3.84704 z"
     id="path5102"
     inkscape:connector-curvature="0" />
  <path
     style="font-style:normal;font-variant:normal;font-weight:bold;font-stretch:normal;font-size:medium;line-height:125%;font-family:sans-serif;-inkscape-font-specification:'sans-serif Bold';letter-spacing:0px;word-spacing:0px;fill:#184330;fill-opacity:1;stroke:none;stroke-width:1px;stroke-linecap:butt;stroke-linejoin:miter;stroke-opacity:1"
     d="m 84.93998,219.27759 4.21631,0 0,1.95374 -4.21631,0 0,-1.95374 z"
     id="path5104"
     inkscape:connector-curvature="0" />
  <path
     style="font-style:normal;font-variant:normal;font-weight:bold;font-stretch:normal;font-size:medium;line-height:125%;font-family:sans-serif;-inkscape-font-specification:'sans-serif Bold';letter-spacing:0px;word-spacing:0px;fill:#184330;fill-opacity:1;stroke:none;stroke-width:1px;stroke-linecap:butt;stroke-linejoin:miter;stroke-opacity:1"
     d="m 101.01969,219.19031 q 0,-1.87988 -0.35583,-2.64526 -0.34912,-0.7721 -1.18164,-0.7721 -0.83252,0 -1.18836,0.7721 -0.35583,0.76538 -0.35583,2.64526 0,1.90002 0.35583,2.67883 0.35584,0.77881 1.18836,0.77881 0.8258,0 1.18164,-0.77881 0.35583,-0.77881 0.35583,-2.67883 z m 2.58484,0.0201 q 0,2.49085 -1.07422,3.84705 -1.07422,1.34948 -3.04809,1.34948 -1.98059,0 -3.05481,-1.34948 -1.07422,-1.3562 -1.07422,-3.84705 0,-2.49756 1.07422,-3.84704 1.07422,-1.35621 3.05481,-1.35621 1.97387,0 3.04809,1.35621 1.07422,1.34948 1.07422,3.84704 z"
     id="path5106"
     inkscape:connector-curvature="0" />
  <circle
     style="opacity:1;fill:#82d2af;fill-opacity:1;stroke:none;stroke-width:5;stroke-miterlimit:4;stroke-dasharray:none;stroke-opacity:1"
     id="sb_0_3"
     cx="667.74225"
     cy="219.20705"
     r="31.345188" />
  <path
     style="font-style:normal;font-variant:normal;font-weight:bold;font-stretch:normal;font-size:medium;line-height:125%;font-family:sans-serif;-inkscape-font-specification:'sans-serif Bold';letter-spacing:0px;word-spacing:0px;fill:#184330;fill-opacity:1;stroke:none;stroke-width:1px;stroke-linecap:butt;stroke-linejoin:miter;stroke-opacity:1"
     d="m 652.08216,219.19031 q 0,-1.87988 -0.35584,-2.64526 -0.34912,-0.7721 -1.18164,-0.7721 -0.83252,0 -1.18835,0.7721 -0.35584,0.76538 -0.35584,2.64526 0,1.90002 0.35584,2.67883 0.35583,0.77881 1.18835,0.77881 0.82581,0 1.18164,-0.77881 0.35584,-0.77881 0.35584,-2.67883 z m 2.58484,0.0201 q 0,2.49085 -1.07422,3.84705 -1.07422,1.34948 -3.0481,1.34948 -1.98059,0 -3.05481,-1.34948 -1.07422,-1.3562 -1.07422,-3.84705 0,-2.49756 1.07422,-3.84704 1.07422,-1.35621 3.05481,-1.35621 1.97388,0 3.0481,1.35621 1.07422,1.34948 1.07422,3.84704 z"
     id="path5069"
     inkscape:connector-curvature="0" />
  <path
     style="font-style:normal;font-variant:normal;font-weight:bold;font-stretch:normal;font-size:medium;line-height:125%;font-family:sans-serif;-inkscape-font-specification:'sans-serif Bold';letter-spacing:0px;word-spacing:0px;fill:#184330;fill-opacity:1;stroke:none;stroke-width:1px;stroke-linecap:butt;stroke-linejoin:miter;stroke-opacity:1"
     d="m 660.84375,219.27759 4.21631,0 0,1.95374 -4.21631,0 0,-1.95374 z"
     id="path5071"
     inkscape:connector-curvature="0" />
  <path
     style="font-style:normal;font-variant:normal;font-weight:bold;font-stretch:normal;font-size:medium;line-height:125%;font-family:sans-serif;-inkscape-font-specification:'sans-serif Bold';letter-spacing:0px;word-spacing:0px;fill:#184330;fill-opacity:1;stroke:none;stroke-width:1px;stroke-linecap:butt;stroke-linejoin:miter;stroke-opacity:1"
     d="m 675.66126,216.31678 -2.83325,4.19616 2.83325,0 0,-4.19616 z m -0.42969,-2.1283 2.87354,0 0,6.32446 1.43005,0 0,1.87317 -1.43005,0 0,1.82617 -2.44385,0 0,-1.82617 -4.44458,0 0,-2.21558 4.01489,-5.98205 z"
     id="path5073"
     inkscape:connector-curvature="0" />
  <path
     style="font-style:normal;font-variant:normal;font-weight:bold;font-stretch:normal;font-size:medium;line-height:125%;font-family:sans-serif;-inkscape-font-specification:'sans-serif Bold';letter-spacing:0px;word-spacing:0px;fill:#184330;fill-opacity:1;stroke:none;stroke-width:1px;stroke-linecap:butt;stroke-linejoin:miter;stroke-opacity:1"
     d="m 686.48401,219.19031 q 0,-1.87988 -0.35583,-2.64526 -0.34912,-0.7721 -1.18164,-0.7721 -0.83252,0 -1.18836,0.7721 -0.35583,0.76538 -0.35583,2.64526 0,1.90002 0.35583,2.67883 0.35584,0.77881 1.18836,0.77881 0.8258,0 1.18164,-0.77881 0.35583,-0.77881 0.35583,-2.67883 z m 2.58484,0.0201 q 0,2.49085 -1.07422,3.84705 -1.07422,1.34948 -3.04809,1.34948 -1.98059,0 -3.05481,-1.34948 -1.07422,-1.3562 -1.07422,-3.84705 0,-2.49756 1.07422,-3.84704 1.07422,-1.35621 3.05481,-1.35621 1.97387,0 3.04809,1.35621 1.07422,1.34948 1.07422,3.84704 z"
     id="path5075"
     inkscape:connector-curvature="0" />
  <circle
     r="31.345188"
     cy="280.70419"
     cx="179.83853"
     id="sb_3_1"
     style="opacity:1;fill:#82d2af;fill-opacity:1;stroke:none;stroke-width:5;stroke-miterlimit:4;stroke-dasharray:none;stroke-opacity:1" />
  <path
     style="font-style:normal;font-variant:normal;font-weight:bold;font-stretch:normal;font-size:medium;line-height:125%;font-family:sans-serif;-inkscape-font-specification:'sans-serif Bold';letter-spacing:0px;word-spacing:0px;fill:#184330;fill-opacity:1;stroke:none;stroke-width:1px;stroke-linecap:butt;stroke-linejoin:miter;stroke-opacity:1"
     d="m 158.30716,277.8139 -2.83325,4.19616 2.83325,0 0,-4.19616 z m -0.42969,-2.1283 2.87354,0 0,6.32446 1.43005,0 0,1.87317 -1.43005,0 0,1.82617 -2.44385,0 0,-1.82617 -4.44458,0 0,-2.21558 4.01489,-5.98205 z"
     id="path5036"
     inkscape:connector-curvature="0" />
  <path
     style="font-style:normal;font-variant:normal;font-weight:bold;font-stretch:normal;font-size:medium;line-height:125%;font-family:sans-serif;-inkscape-font-specification:'sans-serif Bold';letter-spacing:0px;word-spacing:0px;fill:#184330;fill-opacity:1;stroke:none;stroke-width:1px;stroke-linecap:butt;stroke-linejoin:miter;stroke-opacity:1"
     d="m 169.12991,280.68743 q 0,-1.87988 -0.35583,-2.64526 -0.34912,-0.7721 -1.18164,-0.7721 -0.83252,0 -1.18836,0.7721 -0.35583,0.76538 -0.35583,2.64526 0,1.90002 0.35583,2.67883 0.35584,0.77881 1.18836,0.77881 0.8258,0 1.18164,-0.77881 0.35583,-0.77881 0.35583,-2.67883 z m 2.58484,0.0201 q 0,2.49085 -1.07422,3.84705 -1.07422,1.34948 -3.04809,1.34948 -1.98059,0 -3.05481,-1.34948 -1.07422,-1.3562 -1.07422,-3.84705 0,-2.49756 1.07422,-3.84704 1.07422,-1.35621 3.05481,-1.35621 1.97387,0 3.04809,1.35621 1.07422,1.34948 1.07422,3.84704 z"
     id="path5038"
     inkscape:connector-curvature="0" />
  <path
     style="font-style:normal;font-variant:normal;font-weight:bold;font-stretch:normal;font-size:medium;line-height:125%;font-family:sans-serif;-inkscape-font-specification:'sans-serif Bold';letter-spacing:0px;word-spacing:0px;fill:#184330;fill-opacity:1;stroke:none;stroke-width:1px;stroke-linecap:butt;stroke-linejoin:miter;stroke-opacity:1"
     d="m 177.89151,280.77471 4.21631,0 0,1.95374 -4.21631,0 0,-1.95374 z"
     id="path5040"
     inkscape:connector-curvature="0" />
  <path
     style="font-style:normal;font-variant:normal;font-weight:bold;font-stretch:normal;font-size:medium;line-height:125%;font-family:sans-serif;-inkscape-font-specification:'sans-serif Bold';letter-spacing:0px;word-spacing:0px;fill:#184330;fill-opacity:1;stroke:none;stroke-width:1px;stroke-linecap:butt;stroke-linejoin:miter;stroke-opacity:1"
     d="m 189.25809,283.92351 2.28271,0 0,-6.47888 -2.34314,0.4834 0,-1.75903 2.32971,-0.4834 2.45728,0 0,8.23791 2.28271,0 0,1.78589 -7.00927,0 0,-1.78589 z"
     id="path5042"
     inkscape:connector-curvature="0" />
  <path
     style="font-style:normal;font-variant:normal;font-weight:bold;font-stretch:normal;font-size:medium;line-height:125%;font-family:sans-serif;-inkscape-font-specification:'sans-serif Bold';letter-spacing:0px;word-spacing:0px;fill:#184330;fill-opacity:1;stroke:none;stroke-width:1px;stroke-linecap:butt;stroke-linejoin:miter;stroke-opacity:1"
     d="m 198.66422,275.6856 6.42517,0 0,1.90002 -4.36402,0 0,1.55091 q 0.29541,-0.0806 0.59082,-0.12085 0.30213,-0.047 0.62439,-0.047 1.83289,0 2.8534,0.9198 1.0205,0.91309 1.0205,2.55127 0,1.62476 -1.1145,2.54456 -1.10779,0.91979 -3.08166,0.91979 -0.85266,0 -1.6919,-0.16784 -0.83252,-0.16113 -1.65832,-0.49683 l 0,-2.0343 q 0.81909,0.46997 1.5509,0.70496 0.73853,0.23498 1.38977,0.23498 0.93994,0 1.47705,-0.45654 0.54382,-0.46326 0.54382,-1.24878 0,-0.79224 -0.54382,-1.24878 -0.53711,-0.45654 -1.47705,-0.45654 -0.55725,0 -1.18835,0.1477 -0.63111,0.14099 -1.3562,0.44312 l 0,-5.63965 z"
     id="path5044"
     inkscape:connector-curvature="0" />
  <circle
     r="31.345188"
     cy="280.70419"
     cx="570.1615"
     id="sb_1_3"
     style="opacity:1;fill:#82d2af;fill-opacity:1;stroke:none;stroke-width:5;stroke-miterlimit:4;stroke-dasharray:none;stroke-opacity:1" />
  <path
     style="font-style:normal;font-variant:normal;font-weight:bold;font-stretch:normal;font-size:medium;line-height:125%;font-family:sans-serif;-inkscape-font-specification:'sans-serif Bold';letter-spacing:0px;word-spacing:0px;fill:#184330;fill-opacity:1;stroke:none;stroke-width:1px;stroke-linecap:butt;stroke-linejoin:miter;stroke-opacity:1"
     d="m 544.56152,283.92351 2.28272,0 0,-6.47888 -2.34314,0.4834 0,-1.75903 2.32971,-0.4834 2.45727,0 0,8.23791 2.28272,0 0,1.78589 -7.00928,0 0,-1.78589 z"
     id="path5058"
     inkscape:connector-curvature="0" />
  <path
     style="font-style:normal;font-variant:normal;font-weight:bold;font-stretch:normal;font-size:medium;line-height:125%;font-family:sans-serif;-inkscape-font-specification:'sans-serif Bold';letter-spacing:0px;word-spacing:0px;fill:#184330;fill-opacity:1;stroke:none;stroke-width:1px;stroke-linecap:butt;stroke-linejoin:miter;stroke-opacity:1"
     d="m 553.96765,275.6856 6.42517,0 0,1.90002 -4.36401,0 0,1.55091 q 0.29541,-0.0806 0.59082,-0.12085 0.30212,-0.047 0.62439,-0.047 1.83288,0 2.85339,0.9198 1.02051,0.91309 1.02051,2.55127 0,1.62476 -1.1145,2.54456 -1.10779,0.91979 -3.08167,0.91979 -0.85266,0 -1.69189,-0.16784 -0.83252,-0.16113 -1.65833,-0.49683 l 0,-2.0343 q 0.81909,0.46997 1.5509,0.70496 0.73853,0.23498 1.38978,0.23498 0.93994,0 1.47705,-0.45654 0.54382,-0.46326 0.54382,-1.24878 0,-0.79224 -0.54382,-1.24878 -0.53711,-0.45654 -1.47705,-0.45654 -0.55726,0 -1.18836,0.1477 -0.6311,0.14099 -1.3562,0.44312 l 0,-5.63965 z"
     id="path5060"
     inkscape:connector-curvature="0" />
  <path
     style="font-style:normal;font-variant:normal;font-weight:bold;font-stretch:normal;font-size:medium;line-height:125%;font-family:sans-serif;-inkscape-font-specification:'sans-serif Bold';letter-spacing:0px;word-spacing:0px;fill:#184330;fill-opacity:1;stroke:none;stroke-width:1px;stroke-linecap:butt;stroke-linejoin:miter;stroke-opacity:1"
     d="m 567.5968,280.77471 4.21631,0 0,1.95374 -4.21631,0 0,-1.95374 z"
     id="path5062"
     inkscape:connector-curvature="0" />
  <path
     style="font-style:normal;font-variant:normal;font-weight:bold;font-stretch:normal;font-size:medium;line-height:125%;font-family:sans-serif;-inkscape-font-specification:'sans-serif Bold';letter-spacing:0px;word-spacing:0px;fill:#184330;fill-opacity:1;stroke:none;stroke-width:1px;stroke-linecap:butt;stroke-linejoin:miter;stroke-opacity:1"
     d="m 582.4143,277.8139 -2.83325,4.19616 2.83325,0 0,-4.19616 z m -0.42968,-2.1283 2.87353,0 0,6.32446 1.43006,0 0,1.87317 -1.43006,0 0,1.82617 -2.44385,0 0,-1.82617 -4.44458,0 0,-2.21558 4.0149,-5.98205 z"
     id="path5064"
     inkscape:connector-curvature="0" />
  <path
     style="font-style:normal;font-variant:normal;font-weight:bold;font-stretch:normal;font-size:medium;line-height:125%;font-family:sans-serif;-inkscape-font-specification:'sans-serif Bold';letter-spacing:0px;word-spacing:0px;fill:#184330;fill-opacity:1;stroke:none;stroke-width:1px;stroke-linecap:butt;stroke-linejoin:miter;stroke-opacity:1"
     d="m 593.23706,280.68743 q 0,-1.87988 -0.35584,-2.64526 -0.34912,-0.7721 -1.18164,-0.7721 -0.83252,0 -1.18835,0.7721 -0.35584,0.76538 -0.35584,2.64526 0,1.90002 0.35584,2.67883 0.35583,0.77881 1.18835,0.77881 0.82581,0 1.18164,-0.77881 0.35584,-0.77881 0.35584,-2.67883 z m 2.58484,0.0201 q 0,2.49085 -1.07422,3.84705 -1.07422,1.34948 -3.0481,1.34948 -1.98059,0 -3.05481,-1.34948 -1.07422,-1.3562 -1.07422,-3.84705 0,-2.49756 1.07422,-3.84704 1.07422,-1.35621 3.05481,-1.35621 1.97388,0 3.0481,1.35621 1.07422,1.34948 1.07422,3.84704 z"
     id="path5066"
     inkscape:connector-curvature="0" />
  <circle
     r="31.345188"
     cy="342.20132"
     cx="277.41925"
     id="sb_3_2"
     style="opacity:1;fill:#82d2af;fill-opacity:1;stroke:none;stroke-width:5;stroke-miterlimit:4;stroke-dasharray:none;stroke-opacity:1" />
  <path
     style="font-style:normal;font-variant:normal;font-weight:bold;font-stretch:normal;font-size:medium;line-height:125%;font-family:sans-serif;-inkscape-font-specification:'sans-serif Bold';letter-spacing:0px;word-spacing:0px;fill:#184330;fill-opacity:1;stroke:none;stroke-width:1px;stroke-linecap:butt;stroke-linejoin:miter;stroke-opacity:1"
     d="m 255.73682,339.31102 -2.83325,4.19617 2.83325,0 0,-4.19617 z m -0.42969,-2.1283 2.87354,0 0,6.32447 1.43005,0 0,1.87317 -1.43005,0 0,1.82617 -2.44385,0 0,-1.82617 -4.44458,0 0,-2.21558 4.01489,-5.98206 z"
     id="path5025"
     inkscape:connector-curvature="0" />
  <path
     style="font-style:normal;font-variant:normal;font-weight:bold;font-stretch:normal;font-size:medium;line-height:125%;font-family:sans-serif;-inkscape-font-specification:'sans-serif Bold';letter-spacing:0px;word-spacing:0px;fill:#184330;fill-opacity:1;stroke:none;stroke-width:1px;stroke-linecap:butt;stroke-linejoin:miter;stroke-opacity:1"
     d="m 266.55957,342.18455 q 0,-1.87988 -0.35583,-2.64526 -0.34912,-0.77209 -1.18164,-0.77209 -0.83252,0 -1.18836,0.77209 -0.35583,0.76538 -0.35583,2.64526 0,1.90003 0.35583,2.67884 0.35584,0.77881 1.18836,0.77881 0.8258,0 1.18164,-0.77881 0.35583,-0.77881 0.35583,-2.67884 z m 2.58484,0.0201 q 0,2.49084 -1.07422,3.84704 -1.07421,1.34949 -3.04809,1.34949 -1.98059,0 -3.05481,-1.34949 -1.07422,-1.3562 -1.07422,-3.84704 0,-2.49756 1.07422,-3.84705 1.07422,-1.3562 3.05481,-1.3562 1.97388,0 3.04809,1.3562 1.07422,1.34949 1.07422,3.84705 z"
     id="path5027"
     inkscape:connector-curvature="0" />
  <path
     style="font-style:normal;font-variant:normal;font-weight:bold;font-stretch:normal;font-size:medium;line-height:125%;font-family:sans-serif;-inkscape-font-specification:'sans-serif Bold';letter-spacing:0px;word-spacing:0px;fill:#184330;fill-opacity:1;stroke:none;stroke-width:1px;stroke-linecap:butt;stroke-linejoin:miter;stroke-opacity:1"
     d="m 275.32117,342.27183 4.21631,0 0,1.95374 -4.21631,0 0,-1.95374 z"
     id="path5029"
     inkscape:connector-curvature="0" />
  <path
     style="font-style:normal;font-variant:normal;font-weight:bold;font-stretch:normal;font-size:medium;line-height:125%;font-family:sans-serif;-inkscape-font-specification:'sans-serif Bold';letter-spacing:0px;word-spacing:0px;fill:#184330;fill-opacity:1;stroke:none;stroke-width:1px;stroke-linecap:butt;stroke-linejoin:miter;stroke-opacity:1"
     d="m 291.48145,341.80186 q 1.01379,0.26184 1.53747,0.91309 0.5304,0.64453 0.5304,1.6449 0,1.49048 -1.14136,2.26928 -1.14135,0.7721 -3.33008,0.7721 -0.77209,0 -1.5509,-0.12756 -0.77209,-0.12085 -1.53076,-0.36927 l 0,-1.99402 q 0.7251,0.36255 1.43677,0.55054 0.71838,0.18128 1.40991,0.18128 1.02722,0 1.57104,-0.35584 0.55054,-0.35583 0.55054,-1.02051 0,-0.68481 -0.56396,-1.03393 -0.55725,-0.35584 -1.65162,-0.35584 l -1.03393,0 0,-1.66504 1.08765,0 q 0.97351,0 1.45019,-0.30212 0.47669,-0.30884 0.47669,-0.93323 0,-0.57739 -0.46326,-0.89294 -0.46326,-0.31555 -1.30921,-0.31555 -0.62438,0 -1.2622,0.14099 -0.63782,0.14099 -1.26892,0.41626 l 0,-1.89331 q 0.76538,-0.21485 1.51733,-0.32227 0.75195,-0.10742 1.47705,-0.10742 1.95374,0 2.92053,0.64453 0.97351,0.63782 0.97351,1.92688 0,0.87952 -0.46325,1.44348 -0.46326,0.55725 -1.36963,0.78552 z"
     id="path5031"
     inkscape:connector-curvature="0" />
  <path
     style="font-style:normal;font-variant:normal;font-weight:bold;font-stretch:normal;font-size:medium;line-height:125%;font-family:sans-serif;-inkscape-font-specification:'sans-serif Bold';letter-spacing:0px;word-spacing:0px;fill:#184330;fill-opacity:1;stroke:none;stroke-width:1px;stroke-linecap:butt;stroke-linejoin:miter;stroke-opacity:1"
     d="m 300.96143,342.18455 q 0,-1.87988 -0.35584,-2.64526 -0.34912,-0.77209 -1.18164,-0.77209 -0.83252,0 -1.18835,0.77209 -0.35584,0.76538 -0.35584,2.64526 0,1.90003 0.35584,2.67884 0.35583,0.77881 1.18835,0.77881 0.82581,0 1.18164,-0.77881 0.35584,-0.77881 0.35584,-2.67884 z m 2.58484,0.0201 q 0,2.49084 -1.07422,3.84704 -1.07422,1.34949 -3.0481,1.34949 -1.98059,0 -3.05481,-1.34949 -1.07421,-1.3562 -1.07421,-3.84704 0,-2.49756 1.07421,-3.84705 1.07422,-1.3562 3.05481,-1.3562 1.97388,0 3.0481,1.3562 1.07422,1.34949 1.07422,3.84705 z"
     id="path5033"
     inkscape:connector-curvature="0" />
  <circle
     style="opacity:1;fill:#82d2af;fill-opacity:1;stroke:none;stroke-width:5;stroke-miterlimit:4;stroke-dasharray:none;stroke-opacity:1"
     id="sb_2_3"
     cx="472.58075"
     cy="342.20126"
     r="31.345188" />
  <path
     style="font-style:normal;font-variant:normal;font-weight:bold;font-stretch:normal;font-size:medium;line-height:125%;font-family:sans-serif;-inkscape-font-specification:'sans-serif Bold';letter-spacing:0px;word-spacing:0px;fill:#184330;fill-opacity:1;stroke:none;stroke-width:1px;stroke-linecap:butt;stroke-linejoin:miter;stroke-opacity:1"
     d="m 452.09003,341.80181 q 1.0138,0.26184 1.53748,0.91309 0.53039,0.64453 0.53039,1.64489 0,1.49048 -1.14135,2.26929 -1.14136,0.77209 -3.33008,0.77209 -0.7721,0 -1.5509,-0.12756 -0.7721,-0.12085 -1.53077,-0.36926 l 0,-1.99402 q 0.7251,0.36255 1.43677,0.55054 0.71838,0.18127 1.40991,0.18127 1.02722,0 1.57105,-0.35583 0.55054,-0.35584 0.55054,-1.02051 0,-0.68482 -0.56397,-1.03394 -0.55725,-0.35583 -1.65161,-0.35583 l -1.03394,0 0,-1.66504 1.08765,0 q 0.97351,0 1.4502,-0.30212 0.47668,-0.30884 0.47668,-0.93323 0,-0.57739 -0.46326,-0.89295 -0.46325,-0.31555 -1.3092,-0.31555 -0.62439,0 -1.26221,0.14099 -0.63782,0.14099 -1.26892,0.41626 l 0,-1.89331 q 0.76538,-0.21484 1.51733,-0.32226 0.75196,-0.10743 1.47706,-0.10743 1.95373,0 2.92053,0.64454 0.97351,0.63781 0.97351,1.92688 0,0.87951 -0.46326,1.44348 -0.46326,0.55725 -1.36963,0.78552 z"
     id="path5014"
     inkscape:connector-curvature="0" />
  <path
     style="font-style:normal;font-variant:normal;font-weight:bold;font-stretch:normal;font-size:medium;line-height:125%;font-family:sans-serif;-inkscape-font-specification:'sans-serif Bold';letter-spacing:0px;word-spacing:0px;fill:#184330;fill-opacity:1;stroke:none;stroke-width:1px;stroke-linecap:butt;stroke-linejoin:miter;stroke-opacity:1"
     d="m 461.57,342.1845 q 0,-1.87988 -0.35583,-2.64526 -0.34912,-0.7721 -1.18164,-0.7721 -0.83252,0 -1.18836,0.7721 -0.35583,0.76538 -0.35583,2.64526 0,1.90002 0.35583,2.67883 0.35584,0.77881 1.18836,0.77881 0.8258,0 1.18164,-0.77881 0.35583,-0.77881 0.35583,-2.67883 z m 2.58484,0.0201 q 0,2.49085 -1.07422,3.84705 -1.07422,1.34948 -3.04809,1.34948 -1.98059,0 -3.05481,-1.34948 -1.07422,-1.3562 -1.07422,-3.84705 0,-2.49756 1.07422,-3.84704 1.07422,-1.35621 3.05481,-1.35621 1.97387,0 3.04809,1.35621 1.07422,1.34948 1.07422,3.84704 z"
     id="path5016"
     inkscape:connector-curvature="0" />
  <path
     style="font-style:normal;font-variant:normal;font-weight:bold;font-stretch:normal;font-size:medium;line-height:125%;font-family:sans-serif;-inkscape-font-specification:'sans-serif Bold';letter-spacing:0px;word-spacing:0px;fill:#184330;fill-opacity:1;stroke:none;stroke-width:1px;stroke-linecap:butt;stroke-linejoin:miter;stroke-opacity:1"
     d="m 470.33161,342.27178 4.21631,0 0,1.95374 -4.21631,0 0,-1.95374 z"
     id="path5018"
     inkscape:connector-curvature="0" />
  <path
     style="font-style:normal;font-variant:normal;font-weight:bold;font-stretch:normal;font-size:medium;line-height:125%;font-family:sans-serif;-inkscape-font-specification:'sans-serif Bold';letter-spacing:0px;word-spacing:0px;fill:#184330;fill-opacity:1;stroke:none;stroke-width:1px;stroke-linecap:butt;stroke-linejoin:miter;stroke-opacity:1"
     d="m 485.14911,339.31097 -2.83326,4.19616 2.83326,0 0,-4.19616 z m -0.42969,-2.1283 2.87354,0 0,6.32446 1.43006,0 0,1.87317 -1.43006,0 0,1.82617 -2.44385,0 0,-1.82617 -4.44458,0 0,-2.21558 4.0149,-5.98205 z"
     id="path5020"
     inkscape:connector-curvature="0" />
  <path
     style="font-style:normal;font-variant:normal;font-weight:bold;font-stretch:normal;font-size:medium;line-height:125%;font-family:sans-serif;-inkscape-font-specification:'sans-serif Bold';letter-spacing:0px;word-spacing:0px;fill:#184330;fill-opacity:1;stroke:none;stroke-width:1px;stroke-linecap:butt;stroke-linejoin:miter;stroke-opacity:1"
     d="m 495.97186,342.1845 q 0,-1.87988 -0.35584,-2.64526 -0.34912,-0.7721 -1.18164,-0.7721 -0.83252,0 -1.18835,0.7721 -0.35584,0.76538 -0.35584,2.64526 0,1.90002 0.35584,2.67883 0.35583,0.77881 1.18835,0.77881 0.82581,0 1.18164,-0.77881 0.35584,-0.77881 0.35584,-2.67883 z m 2.58484,0.0201 q 0,2.49085 -1.07422,3.84705 -1.07422,1.34948 -3.0481,1.34948 -1.98059,0 -3.05481,-1.34948 -1.07422,-1.3562 -1.07422,-3.84705 0,-2.49756 1.07422,-3.84704 1.07423,-1.35621 3.05481,-1.35621 1.97388,0 3.0481,1.35621 1.07422,1.34948 1.07422,3.84704 z"
     id="path5022"
     inkscape:connector-curvature="0" />
  <circle
     style="opacity:1;fill:#82d2af;fill-opacity:1;stroke:none;stroke-width:5;stroke-miterlimit:4;stroke-dasharray:none;stroke-opacity:1"
     id="sb_4_3"
     cx="277.41925"
     cy="465.19553"
     r="31.345188" />
  <path
     style="font-style:normal;font-variant:normal;font-weight:bold;font-stretch:normal;font-size:medium;line-height:125%;font-family:sans-serif;-inkscape-font-specification:'sans-serif Bold';letter-spacing:0px;word-spacing:0px;fill:#184330;fill-opacity:1;stroke:none;stroke-width:1px;stroke-linecap:butt;stroke-linejoin:miter;stroke-opacity:1"
     d="m 262.53796,468.37459 -4.04174,0 -0.63782,1.82617 -2.59827,0 3.71277,-10.02381 3.08167,0 3.71276,10.02381 -2.59826,0 -0.63111,-1.82617 z m -3.39721,-1.85975 2.74597,0 -1.36963,-3.98803 -1.37634,3.98803 z"
     id="path4985"
     inkscape:connector-curvature="0" />
  <path
     style="font-style:normal;font-variant:normal;font-weight:bold;font-stretch:normal;font-size:medium;line-height:125%;font-family:sans-serif;-inkscape-font-specification:'sans-serif Bold';letter-spacing:0px;word-spacing:0px;fill:#184330;fill-opacity:1;stroke:none;stroke-width:1px;stroke-linecap:butt;stroke-linejoin:miter;stroke-opacity:1"
     d="m 271.35327,465.26606 4.21631,0 0,1.95374 -4.21631,0 0,-1.95374 z"
     id="path4987"
     inkscape:connector-curvature="0" />
  <path
     style="font-style:normal;font-variant:normal;font-weight:bold;font-stretch:normal;font-size:medium;line-height:125%;font-family:sans-serif;-inkscape-font-specification:'sans-serif Bold';letter-spacing:0px;word-spacing:0px;fill:#184330;fill-opacity:1;stroke:none;stroke-width:1px;stroke-linecap:butt;stroke-linejoin:miter;stroke-opacity:1"
     d="m 286.17078,462.30525 -2.83325,4.19617 2.83325,0 0,-4.19617 z m -0.42969,-2.1283 2.87353,0 0,6.32447 1.43006,0 0,1.87317 -1.43006,0 0,1.82617 -2.44384,0 0,-1.82617 -4.44458,0 0,-2.21558 4.01489,-5.98206 z"
     id="path4989"
     inkscape:connector-curvature="0" />
  <path
     style="font-style:normal;font-variant:normal;font-weight:bold;font-stretch:normal;font-size:medium;line-height:125%;font-family:sans-serif;-inkscape-font-specification:'sans-serif Bold';letter-spacing:0px;word-spacing:0px;fill:#184330;fill-opacity:1;stroke:none;stroke-width:1px;stroke-linecap:butt;stroke-linejoin:miter;stroke-opacity:1"
     d="m 296.99353,465.17878 q 0,-1.87988 -0.35583,-2.64526 -0.34912,-0.77209 -1.18164,-0.77209 -0.83252,0 -1.18836,0.77209 -0.35583,0.76538 -0.35583,2.64526 0,1.90003 0.35583,2.67884 0.35584,0.77881 1.18836,0.77881 0.8258,0 1.18164,-0.77881 0.35583,-0.77881 0.35583,-2.67884 z m 2.58484,0.0201 q 0,2.49084 -1.07422,3.84704 -1.07422,1.34949 -3.04809,1.34949 -1.9806,0 -3.05481,-1.34949 -1.07422,-1.3562 -1.07422,-3.84704 0,-2.49756 1.07422,-3.84705 1.07421,-1.3562 3.05481,-1.3562 1.97387,0 3.04809,1.3562 1.07422,1.34949 1.07422,3.84705 z"
     id="path4991"
     inkscape:connector-curvature="0" />
  <circle
     r="31.345188"
     cy="465.19553"
     cx="472.58075"
     id="sb_3_4"
     style="opacity:1;fill:#82d2af;fill-opacity:1;stroke:none;stroke-width:5;stroke-miterlimit:4;stroke-dasharray:none;stroke-opacity:1" />
  <path
     style="font-style:normal;font-variant:normal;font-weight:bold;font-stretch:normal;font-size:medium;line-height:125%;font-family:sans-serif;-inkscape-font-specification:'sans-serif Bold';letter-spacing:0px;word-spacing:0px;fill:#184330;fill-opacity:1;stroke:none;stroke-width:1px;stroke-linecap:butt;stroke-linejoin:miter;stroke-opacity:1"
     d="m 454.84607,462.30525 -2.83325,4.19616 2.83325,0 0,-4.19616 z m -0.42969,-2.1283 2.87354,0 0,6.32446 1.43005,0 0,1.87317 -1.43005,0 0,1.82617 -2.44385,0 0,-1.82617 -4.44458,0 0,-2.21558 4.01489,-5.98205 z"
     id="path4994"
     inkscape:connector-curvature="0" />
  <path
     style="font-style:normal;font-variant:normal;font-weight:bold;font-stretch:normal;font-size:medium;line-height:125%;font-family:sans-serif;-inkscape-font-specification:'sans-serif Bold';letter-spacing:0px;word-spacing:0px;fill:#184330;fill-opacity:1;stroke:none;stroke-width:1px;stroke-linecap:butt;stroke-linejoin:miter;stroke-opacity:1"
     d="m 465.66882,465.17878 q 0,-1.87988 -0.35583,-2.64526 -0.34912,-0.7721 -1.18164,-0.7721 -0.83252,0 -1.18836,0.7721 -0.35583,0.76538 -0.35583,2.64526 0,1.90002 0.35583,2.67883 0.35584,0.77881 1.18836,0.77881 0.8258,0 1.18164,-0.77881 0.35583,-0.77881 0.35583,-2.67883 z m 2.58484,0.0201 q 0,2.49085 -1.07422,3.84705 -1.07422,1.34948 -3.04809,1.34948 -1.98059,0 -3.05481,-1.34948 -1.07422,-1.3562 -1.07422,-3.84705 0,-2.49756 1.07422,-3.84704 1.07422,-1.35621 3.05481,-1.35621 1.97387,0 3.04809,1.35621 1.07422,1.34948 1.07422,3.84704 z"
     id="path4996"
     inkscape:connector-curvature="0" />
  <path
     style="font-style:normal;font-variant:normal;font-weight:bold;font-stretch:normal;font-size:medium;line-height:125%;font-family:sans-serif;-inkscape-font-specification:'sans-serif Bold';letter-spacing:0px;word-spacing:0px;fill:#184330;fill-opacity:1;stroke:none;stroke-width:1px;stroke-linecap:butt;stroke-linejoin:miter;stroke-opacity:1"
     d="m 474.43042,465.26606 4.21631,0 0,1.95374 -4.21631,0 0,-1.95374 z"
     id="path4998"
     inkscape:connector-curvature="0" />
  <path
     style="font-style:normal;font-variant:normal;font-weight:bold;font-stretch:normal;font-size:medium;line-height:125%;font-family:sans-serif;-inkscape-font-specification:'sans-serif Bold';letter-spacing:0px;word-spacing:0px;fill:#184330;fill-opacity:1;stroke:none;stroke-width:1px;stroke-linecap:butt;stroke-linejoin:miter;stroke-opacity:1"
     d="m 491.53064,468.37458 -4.04175,0 -0.63782,1.82617 -2.59826,0 3.71277,-10.0238 3.08166,0 3.71277,10.0238 -2.59827,0 -0.6311,-1.82617 z m -3.39722,-1.85974 2.74597,0 -1.36962,-3.98804 -1.37635,3.98804 z"
     id="path5000"
     inkscape:connector-curvature="0" />
  <circle
     r="31.345188"
     cy="403.69846"
     cx="375"
     id="sb_3_3"
     style="opacity:1;fill:#82d2af;fill-opacity:1;stroke:none;stroke-width:5;stroke-miterlimit:4;stroke-dasharray:none;stroke-opacity:1" />
  <path
     style="font-style:normal;font-variant:normal;font-weight:bold;font-stretch:normal;font-size:medium;line-height:125%;font-family:sans-serif;-inkscape-font-specification:'sans-serif Bold';letter-spacing:0px;word-spacing:0px;fill:#184330;fill-opacity:1;stroke:none;stroke-width:1px;stroke-linecap:butt;stroke-linejoin:miter;stroke-opacity:1"
     d="m 353.31757,400.80817 -2.83326,4.19617 2.83326,0 0,-4.19617 z m -0.42969,-2.1283 2.87353,0 0,6.32447 1.43006,0 0,1.87317 -1.43006,0 0,1.82617 -2.44384,0 0,-1.82617 -4.44458,0 0,-2.21558 4.01489,-5.98206 z"
     id="path5003"
     inkscape:connector-curvature="0" />
  <path
     style="font-style:normal;font-variant:normal;font-weight:bold;font-stretch:normal;font-size:medium;line-height:125%;font-family:sans-serif;-inkscape-font-specification:'sans-serif Bold';letter-spacing:0px;word-spacing:0px;fill:#184330;fill-opacity:1;stroke:none;stroke-width:1px;stroke-linecap:butt;stroke-linejoin:miter;stroke-opacity:1"
     d="m 364.14032,403.68171 q 0,-1.87989 -0.35584,-2.64527 -0.34912,-0.77209 -1.18164,-0.77209 -0.83252,0 -1.18835,0.77209 -0.35584,0.76538 -0.35584,2.64527 0,1.90002 0.35584,2.67883 0.35583,0.77881 1.18835,0.77881 0.82581,0 1.18164,-0.77881 0.35584,-0.77881 0.35584,-2.67883 z m 2.58484,0.0201 q 0,2.49084 -1.07422,3.84704 -1.07422,1.34949 -3.0481,1.34949 -1.98059,0 -3.05481,-1.34949 -1.07421,-1.3562 -1.07421,-3.84704 0,-2.49756 1.07421,-3.84705 1.07422,-1.3562 3.05481,-1.3562 1.97388,0 3.0481,1.3562 1.07422,1.34949 1.07422,3.84705 z"
     id="path5005"
     inkscape:connector-curvature="0" />
  <path
     style="font-style:normal;font-variant:normal;font-weight:bold;font-stretch:normal;font-size:medium;line-height:125%;font-family:sans-serif;-inkscape-font-specification:'sans-serif Bold';letter-spacing:0px;word-spacing:0px;fill:#184330;fill-opacity:1;stroke:none;stroke-width:1px;stroke-linecap:butt;stroke-linejoin:miter;stroke-opacity:1"
     d="m 372.90192,403.76899 4.21631,0 0,1.95373 -4.21631,0 0,-1.95373 z"
     id="path5007"
     inkscape:connector-curvature="0" />
  <path
     style="font-style:normal;font-variant:normal;font-weight:bold;font-stretch:normal;font-size:medium;line-height:125%;font-family:sans-serif;-inkscape-font-specification:'sans-serif Bold';letter-spacing:0px;word-spacing:0px;fill:#184330;fill-opacity:1;stroke:none;stroke-width:1px;stroke-linecap:butt;stroke-linejoin:miter;stroke-opacity:1"
     d="m 387.71942,400.80817 -2.83325,4.19617 2.83325,0 0,-4.19617 z m -0.42969,-2.1283 2.87354,0 0,6.32447 1.43005,0 0,1.87317 -1.43005,0 0,1.82617 -2.44385,0 0,-1.82617 -4.44458,0 0,-2.21558 4.01489,-5.98206 z"
     id="path5009"
     inkscape:connector-curvature="0" />
  <path
     style="font-style:normal;font-variant:normal;font-weight:bold;font-stretch:normal;font-size:medium;line-height:125%;font-family:sans-serif;-inkscape-font-specification:'sans-serif Bold';letter-spacing:0px;word-spacing:0px;fill:#184330;fill-opacity:1;stroke:none;stroke-width:1px;stroke-linecap:butt;stroke-linejoin:miter;stroke-opacity:1"
     d="m 398.54218,403.68171 q 0,-1.87989 -0.35584,-2.64527 -0.34912,-0.77209 -1.18164,-0.77209 -0.83252,0 -1.18835,0.77209 -0.35584,0.76538 -0.35584,2.64527 0,1.90002 0.35584,2.67883 0.35583,0.77881 1.18835,0.77881 0.82581,0 1.18164,-0.77881 0.35584,-0.77881 0.35584,-2.67883 z m 2.58483,0.0201 q 0,2.49084 -1.07421,3.84704 -1.07422,1.34949 -3.0481,1.34949 -1.98059,0 -3.05481,-1.34949 -1.07422,-1.3562 -1.07422,-3.84704 0,-2.49756 1.07422,-3.84705 1.07422,-1.3562 3.05481,-1.3562 1.97388,0 3.0481,1.3562 1.07421,1.34949 1.07421,3.84705 z"
     id="path5011"
     inkscape:connector-curvature="0" />
  <circle
     r="31.345188"
     cy="96.21273"
     cx="472.58075"
     id="sb_0_1"
     style="opacity:1;fill:#82d2af;fill-opacity:1;stroke:none;stroke-width:5;stroke-miterlimit:4;stroke-dasharray:none;stroke-opacity:1" />
  <path
     style="font-style:normal;font-variant:normal;font-weight:bold;font-stretch:normal;font-size:medium;line-height:125%;font-family:sans-serif;-inkscape-font-specification:'sans-serif Bold';letter-spacing:0px;word-spacing:0px;fill:#184330;fill-opacity:1;stroke:none;stroke-width:1px;stroke-linecap:butt;stroke-linejoin:miter;stroke-opacity:1"
     d="m 457.07172,96.19597 q 0,-1.87988 -0.35584,-2.64526 -0.34912,-0.7721 -1.18164,-0.7721 -0.83252,0 -1.18835,0.7721 -0.35584,0.76538 -0.35584,2.64526 0,1.90002 0.35584,2.67883 0.35583,0.77881 1.18835,0.77881 0.82581,0 1.18164,-0.77881 0.35584,-0.77881 0.35584,-2.67883 z m 2.58484,0.0201 q 0,2.49085 -1.07422,3.84705 -1.07422,1.34948 -3.0481,1.34948 -1.98059,0 -3.05481,-1.34948 -1.07422,-1.3562 -1.07422,-3.84705 0,-2.49756 1.07422,-3.84704 1.07422,-1.35621 3.05481,-1.35621 1.97388,0 3.0481,1.35621 1.07422,1.34948 1.07422,3.84704 z"
     id="path5127"
     inkscape:connector-curvature="0" />
  <path
     style="font-style:normal;font-variant:normal;font-weight:bold;font-stretch:normal;font-size:medium;line-height:125%;font-family:sans-serif;-inkscape-font-specification:'sans-serif Bold';letter-spacing:0px;word-spacing:0px;fill:#184330;fill-opacity:1;stroke:none;stroke-width:1px;stroke-linecap:butt;stroke-linejoin:miter;stroke-opacity:1"
     d="m 465.83331,96.28325 4.21631,0 0,1.95374 -4.21631,0 0,-1.95374 z"
     id="path5129"
     inkscape:connector-curvature="0" />
  <path
     style="font-style:normal;font-variant:normal;font-weight:bold;font-stretch:normal;font-size:medium;line-height:125%;font-family:sans-serif;-inkscape-font-specification:'sans-serif Bold';letter-spacing:0px;word-spacing:0px;fill:#184330;fill-opacity:1;stroke:none;stroke-width:1px;stroke-linecap:butt;stroke-linejoin:miter;stroke-opacity:1"
     d="m 477.19989,99.43205 2.28272,0 0,-6.47888 -2.34314,0.4834 0,-1.75903 2.32971,-0.4834 2.45727,0 0,8.23791 2.28272,0 0,1.78589 -7.00928,0 0,-1.78589 z"
     id="path5131"
     inkscape:connector-curvature="0" />
  <path
     style="font-style:normal;font-variant:normal;font-weight:bold;font-stretch:normal;font-size:medium;line-height:125%;font-family:sans-serif;-inkscape-font-specification:'sans-serif Bold';letter-spacing:0px;word-spacing:0px;fill:#184330;fill-opacity:1;stroke:none;stroke-width:1px;stroke-linecap:butt;stroke-linejoin:miter;stroke-opacity:1"
     d="m 486.60602,91.19414 6.42517,0 0,1.90002 -4.36401,0 0,1.55091 q 0.29541,-0.0806 0.59082,-0.12085 0.30212,-0.047 0.62439,-0.047 1.83288,0 2.85339,0.9198 1.02051,0.91309 1.02051,2.55127 0,1.62476 -1.11451,2.54456 -1.10778,0.91979 -3.08166,0.91979 -0.85266,0 -1.69189,-0.16784 -0.83252,-0.16113 -1.65833,-0.49683 l 0,-2.0343 q 0.81909,0.46997 1.5509,0.70496 0.73853,0.23498 1.38977,0.23498 0.93995,0 1.47705,-0.45654 0.54383,-0.46326 0.54383,-1.24878 0,-0.79224 -0.54383,-1.24878 -0.5371,-0.45654 -1.47705,-0.45654 -0.55725,0 -1.18835,0.1477 -0.6311,0.14099 -1.3562,0.44312 l 0,-5.63965 z"
     id="path5133"
     inkscape:connector-curvature="0" />
  <circle
     r="31.345188"
     cy="157.70985"
     cx="179.83853"
     id="sb_2_0"
     style="opacity:1;fill:#82d2af;fill-opacity:1;stroke:none;stroke-width:5;stroke-miterlimit:4;stroke-dasharray:none;stroke-opacity:1" />
  <path
     style="font-style:normal;font-variant:normal;font-weight:bold;font-stretch:normal;font-size:medium;line-height:125%;font-family:sans-serif;-inkscape-font-specification:'sans-serif Bold';letter-spacing:0px;word-spacing:0px;fill:#184330;fill-opacity:1;stroke:none;stroke-width:1px;stroke-linecap:butt;stroke-linejoin:miter;stroke-opacity:1"
     d="m 164.12808,157.31041 q 1.0138,0.26184 1.53748,0.91309 0.53039,0.64453 0.53039,1.64489 0,1.49048 -1.14135,2.26929 -1.14136,0.77209 -3.33008,0.77209 -0.7721,0 -1.5509,-0.12756 -0.7721,-0.12085 -1.53077,-0.36926 l 0,-1.99402 q 0.7251,0.36255 1.43677,0.55054 0.71838,0.18127 1.40991,0.18127 1.02722,0 1.57105,-0.35583 0.55054,-0.35584 0.55054,-1.02051 0,-0.68482 -0.56397,-1.03394 -0.55725,-0.35583 -1.65161,-0.35583 l -1.03394,0 0,-1.66504 1.08765,0 q 0.97351,0 1.4502,-0.30212 0.47668,-0.30884 0.47668,-0.93323 0,-0.57739 -0.46326,-0.89295 -0.46325,-0.31555 -1.3092,-0.31555 -0.62439,0 -1.26221,0.14099 -0.63782,0.14099 -1.26892,0.41626 l 0,-1.89331 q 0.76538,-0.21484 1.51733,-0.32226 0.75196,-0.10743 1.47706,-0.10743 1.95373,0 2.92053,0.64454 0.97351,0.63781 0.97351,1.92688 0,0.87951 -0.46326,1.44348 -0.46326,0.55725 -1.36963,0.78552 z"
     id="path5109"
     inkscape:connector-curvature="0" />
  <path
     style="font-style:normal;font-variant:normal;font-weight:bold;font-stretch:normal;font-size:medium;line-height:125%;font-family:sans-serif;-inkscape-font-specification:'sans-serif Bold';letter-spacing:0px;word-spacing:0px;fill:#184330;fill-opacity:1;stroke:none;stroke-width:1px;stroke-linecap:butt;stroke-linejoin:miter;stroke-opacity:1"
     d="m 173.60806,157.6931 q 0,-1.87988 -0.35583,-2.64526 -0.34912,-0.7721 -1.18164,-0.7721 -0.83252,0 -1.18836,0.7721 -0.35583,0.76538 -0.35583,2.64526 0,1.90002 0.35583,2.67883 0.35584,0.77881 1.18836,0.77881 0.8258,0 1.18164,-0.77881 0.35583,-0.77881 0.35583,-2.67883 z m 2.58484,0.0201 q 0,2.49085 -1.07422,3.84705 -1.07422,1.34948 -3.04809,1.34948 -1.98059,0 -3.05481,-1.34948 -1.07422,-1.3562 -1.07422,-3.84705 0,-2.49756 1.07422,-3.84704 1.07422,-1.35621 3.05481,-1.35621 1.97387,0 3.04809,1.35621 1.07422,1.34948 1.07422,3.84704 z"
     id="path5111"
     inkscape:connector-curvature="0" />
  <path
     style="font-style:normal;font-variant:normal;font-weight:bold;font-stretch:normal;font-size:medium;line-height:125%;font-family:sans-serif;-inkscape-font-specification:'sans-serif Bold';letter-spacing:0px;word-spacing:0px;fill:#184330;fill-opacity:1;stroke:none;stroke-width:1px;stroke-linecap:butt;stroke-linejoin:miter;stroke-opacity:1"
     d="m 182.36966,157.78038 4.21631,0 0,1.95374 -4.21631,0 0,-1.95374 z"
     id="path5113"
     inkscape:connector-curvature="0" />
  <path
     style="font-style:normal;font-variant:normal;font-weight:bold;font-stretch:normal;font-size:medium;line-height:125%;font-family:sans-serif;-inkscape-font-specification:'sans-serif Bold';letter-spacing:0px;word-spacing:0px;fill:#184330;fill-opacity:1;stroke:none;stroke-width:1px;stroke-linecap:butt;stroke-linejoin:miter;stroke-opacity:1"
     d="m 198.44937,157.6931 q 0,-1.87988 -0.35583,-2.64526 -0.34912,-0.7721 -1.18164,-0.7721 -0.83252,0 -1.18836,0.7721 -0.35583,0.76538 -0.35583,2.64526 0,1.90002 0.35583,2.67883 0.35584,0.77881 1.18836,0.77881 0.8258,0 1.18164,-0.77881 0.35583,-0.77881 0.35583,-2.67883 z m 2.58484,0.0201 q 0,2.49085 -1.07422,3.84705 -1.07422,1.34948 -3.04809,1.34948 -1.98059,0 -3.05481,-1.34948 -1.07422,-1.3562 -1.07422,-3.84705 0,-2.49756 1.07422,-3.84704 1.07422,-1.35621 3.05481,-1.35621 1.97387,0 3.04809,1.35621 1.07422,1.34948 1.07422,3.84704 z"
     id="path5115"
     inkscape:connector-curvature="0" />
  <g
     id="ser_win">
    <path
       style="opacity:1;fill:#5ca9c0;fill-opacity:1;stroke:none;stroke-width:1;stroke-miterlimit:4;stroke-dasharray:none;stroke-opacity:1"
       id="path5449"
       d="m 165.74444,438.45662 c -4.29151,4.29151 -11.8712,-1.29632 -17.27881,1.459 -5.40762,2.75532 -5.34221,12.17182 -11.33659,13.12132 -5.99439,0.9494 -8.84205,-8.0265 -14.83644,-8.97592 -5.99438,-0.94942 -11.47637,6.70722 -16.88398,3.95182 -5.40762,-2.75528 -2.43554,-11.69073 -6.727042,-15.98224 -4.291506,-4.2915 -13.226956,-1.31942 -15.982273,-6.72704 -2.755317,-5.40761 4.901272,-10.8896 3.951855,-16.88398 -0.949418,-5.99439 -9.925293,-8.84205 -8.975876,-14.83644 0.949417,-5.99438 10.365958,-5.92897 13.121274,-11.33658 2.755317,-5.40762 -2.832504,-12.98731 1.459002,-17.27882 4.291506,-4.2915 11.8712,1.29632 17.27881,-1.459 5.40762,-2.75532 5.34221,-12.17186 11.33659,-13.12128 5.99439,-0.94941 8.84205,8.02646 14.83644,8.97588 5.99438,0.94942 11.47637,-6.70717 16.88398,-3.95185 5.40762,2.75531 2.43554,11.69076 6.72704,15.98227 4.29151,4.2915 13.22696,1.31942 15.98228,6.72704 2.75531,5.40761 -4.90128,10.8896 -3.95186,16.88398 0.94942,5.99439 9.92529,8.84205 8.97588,14.83644 -0.94942,5.99438 -10.36596,5.92897 -13.12128,11.33659 -2.75532,5.40761 2.83251,12.9873 -1.459,17.27881 z"
       inkscape:connector-curvature="0" />
    <circle
       style="opacity:1;fill:#b0d5e1;fill-opacity:1;stroke:none;stroke-width:1;stroke-miterlimit:4;stroke-dasharray:none;stroke-opacity:1"
       id="circle5451"
       cx="129"
       cy="401.71219"
       r="39" />
    <g
       style="font-style:normal;font-variant:normal;font-weight:bold;font-stretch:normal;font-size:13.75px;line-height:125%;font-family:sans-serif;-inkscape-font-specification:'sans-serif Bold';text-align:center;letter-spacing:0px;word-spacing:0px;text-anchor:middle;fill:#184431;fill-opacity:1;stroke:none;stroke-width:1px;stroke-linecap:butt;stroke-linejoin:miter;stroke-opacity:1"
       id="text5479">
      <path
         d="m 106.61261,390.33996 0,2.12159 q -0.82581,-0.36927 -1.61133,-0.55725 -0.78552,-0.18799 -1.48376,-0.18799 -0.92652,0 -1.36963,0.25512 -0.44312,0.25513 -0.44312,0.79224 0,0.40283 0.29541,0.6311 0.30213,0.22156 1.08765,0.38269 l 1.10107,0.22156 q 1.67176,0.3357 2.37671,1.02051 0.70496,0.68481 0.70496,1.94702 0,1.65833 -0.98694,2.4707 -0.98022,0.80567 -3.0011,0.80567 -0.95337,0 -1.91345,-0.18128 -0.96008,-0.18127 -1.920166,-0.5371 l 0,-2.18201 q 0.960086,0.51025 1.853026,0.77209 0.89966,0.25513 1.73218,0.25513 0.84595,0 1.29578,-0.28198 0.44982,-0.28198 0.44982,-0.80567 0,-0.46997 -0.30883,-0.72509 -0.30213,-0.25513 -1.21521,-0.45655 l -1.00037,-0.22155 q -1.50391,-0.32227 -2.20215,-1.02723 -0.691527,-0.70495 -0.691527,-1.90002 0,-1.49719 0.966797,-2.30286 0.9668,-0.80566 2.77954,-0.80566 0.82581,0 1.69861,0.12756 0.8728,0.12085 1.80603,0.36926 z"
         id="path4674"
         style="fill:#223b43;fill-opacity:1"
         inkscape:connector-curvature="0" />
      <path
         d="m 109.57343,390.02441 6.9757,0 0,1.95374 -4.39087,0 0,1.86645 4.12903,0 0,1.95374 -4.12903,0 0,2.29614 4.53858,0 0,1.95374 -7.12341,0 0,-10.02381 z"
         id="path4676"
         style="fill:#223b43;fill-opacity:1"
         inkscape:connector-curvature="0" />
      <path
         d="m 122.64532,394.46899 q 0.81238,0 1.1615,-0.30212 0.35584,-0.30212 0.35584,-0.99365 0,-0.68482 -0.35584,-0.98023 -0.34912,-0.29541 -1.1615,-0.29541 l -1.08764,0 0,2.57141 1.08764,0 z m -1.08764,1.78589 0,3.79334 -2.58484,0 0,-10.02381 3.94775,0 q 1.98059,0 2.90039,0.66468 0.92652,0.66467 0.92652,2.10144 0,0.99365 -0.4834,1.63147 -0.47669,0.63781 -1.44348,0.93994 0.53039,0.12085 0.94665,0.55053 0.42298,0.42298 0.85266,1.28907 l 1.4032,2.84668 -2.75268,0 -1.22193,-2.49085 q -0.36926,-0.75195 -0.75195,-1.02722 -0.37598,-0.27527 -1.00708,-0.27527 l -0.73181,0 z"
         id="path4678"
         style="fill:#223b43;fill-opacity:1"
         inkscape:connector-curvature="0" />
      <path
         d="m 128.35883,390.02441 2.59826,0 2.65869,7.39868 2.65198,-7.39868 2.59827,0 -3.71277,10.02381 -3.08167,0 -3.71276,-10.02381 z"
         id="path4680"
         style="fill:#223b43;fill-opacity:1"
         inkscape:connector-curvature="0" />
      <path
         d="m 140.18866,390.02441 6.97571,0 0,1.95374 -4.39087,0 0,1.86645 4.12903,0 0,1.95374 -4.12903,0 0,2.29614 4.53857,0 0,1.95374 -7.12341,0 0,-10.02381 z"
         id="path4682"
         style="fill:#223b43;fill-opacity:1"
         inkscape:connector-curvature="0" />
      <path
         d="m 153.26056,394.46899 q 0.81238,0 1.1615,-0.30212 0.35583,-0.30212 0.35583,-0.99365 0,-0.68482 -0.35583,-0.98023 -0.34912,-0.29541 -1.1615,-0.29541 l -1.08765,0 0,2.57141 1.08765,0 z m -1.08765,1.78589 0,3.79334 -2.58484,0 0,-10.02381 3.94776,0 q 1.98059,0 2.90039,0.66468 0.92651,0.66467 0.92651,2.10144 0,0.99365 -0.4834,1.63147 -0.47668,0.63781 -1.44348,0.93994 0.5304,0.12085 0.94666,0.55053 0.42297,0.42298 0.85266,1.28907 l 1.4032,2.84668 -2.75269,0 -1.22192,-2.49085 q -0.36927,-0.75195 -0.75196,-1.02722 -0.37597,-0.27527 -1.00708,-0.27527 l -0.73181,0 z"
         id="path4684"
         style="fill:#223b43;fill-opacity:1"
         inkscape:connector-curvature="0" />
      <path
         d="m 108.19708,407.21191 2.47742,0 1.73218,7.28455 1.71875,-7.28455 2.49084,0 1.71875,7.28455 1.73218,-7.28455 2.45728,0 -2.36329,10.02381 -2.98095,0 -1.81946,-7.62024 -1.79932,7.62024 -2.98095,0 -2.38343,-10.02381 z"
         id="path4686"
         style="fill:#223b43;fill-opacity:1"
         inkscape:connector-curvature="0" />
      <path
         d="m 124.22308,407.21191 2.58484,0 0,10.02381 -2.58484,0 0,-10.02381 z"
         id="path4688"
         style="fill:#223b43;fill-opacity:1"
         inkscape:connector-curvature="0" />
      <path
         d="m 129.32562,407.21191 2.88697,0 3.64563,6.875 0,-6.875 2.45056,0 0,10.02381 -2.88697,0 -3.64563,-6.875 0,6.875 -2.45056,0 0,-10.02381 z"
         id="path4690"
         style="fill:#223b43;fill-opacity:1"
         inkscape:connector-curvature="0" />
      <path
         d="m 147.79547,407.52746 0,2.12159 q -0.8258,-0.36927 -1.61133,-0.55725 -0.78552,-0.18799 -1.48376,-0.18799 -0.92652,0 -1.36963,0.25512 -0.44312,0.25513 -0.44312,0.79224 0,0.40283 0.29541,0.6311 0.30213,0.22156 1.08765,0.38269 l 1.10108,0.22156 q 1.67175,0.3357 2.3767,1.02051 0.70496,0.68481 0.70496,1.94702 0,1.65833 -0.98694,2.4707 -0.98022,0.80567 -3.0011,0.80567 -0.95337,0 -1.91345,-0.18128 -0.96008,-0.18127 -1.92017,-0.5371 l 0,-2.18201 q 0.96009,0.51025 1.85303,0.77209 0.89966,0.25513 1.73218,0.25513 0.84595,0 1.29578,-0.28198 0.44983,-0.28198 0.44983,-0.80567 0,-0.46997 -0.30884,-0.72509 -0.30213,-0.25513 -1.21521,-0.45655 l -1.00037,-0.22155 q -1.5039,-0.32227 -2.20215,-1.02723 -0.69153,-0.70495 -0.69153,-1.90002 0,-1.49719 0.9668,-2.30286 0.9668,-0.80566 2.77954,-0.80566 0.82581,0 1.69861,0.12756 0.8728,0.12085 1.80603,0.36926 z"
         id="path4692"
         style="fill:#223b43;fill-opacity:1"
         inkscape:connector-curvature="0" />
    </g>
  </g>
  <g
     id="rec_win">
    <path
       d="m 657.74444,446.94191 c -4.29151,4.29153 -11.8712,-1.29631 -17.27881,1.45903 -5.40762,2.7553 -5.34221,12.1718 -11.33659,13.1212 -5.99439,0.9495 -8.84205,-8.0264 -14.83644,-8.9758 -5.99438,-0.9494 -11.47637,6.7071 -16.88398,3.9518 -5.40762,-2.7553 -2.43554,-11.69074 -6.72704,-15.98225 -4.29151,-4.2915 -13.22696,-1.31942 -15.98228,-6.72704 -2.75531,-5.40761 4.90128,-10.8896 3.95186,-16.88398 -0.94942,-5.99439 -9.92529,-8.84205 -8.97588,-14.83643 0.94942,-5.99439 10.36596,-5.92898 13.12128,-11.33659 2.75532,-5.40762 -2.83251,-12.98731 1.459,-17.27882 4.29151,-4.2915 11.8712,1.29632 17.27881,-1.459 5.40762,-2.75532 5.34221,-12.17186 11.33659,-13.12127 5.99439,-0.94942 8.84205,8.02645 14.83644,8.97587 5.99438,0.94942 11.47637,-6.70717 16.88398,-3.95185 5.40762,2.75531 2.43554,11.69076 6.72704,15.98227 4.29151,4.2915 13.22696,1.31943 15.98228,6.72704 2.75531,5.40761 -4.90128,10.8896 -3.95186,16.88398 0.94942,5.99439 9.92529,8.84205 8.97588,14.83644 -0.94942,5.99438 -10.36596,5.92897 -13.12128,11.33659 -2.75532,5.40761 2.83251,12.9873 -1.459,17.27881 z"
       id="path5447"
       style="opacity:1;fill:#e35f1e;fill-opacity:1;stroke:none;stroke-width:1;stroke-miterlimit:4;stroke-dasharray:none;stroke-opacity:1"
       inkscape:connector-curvature="0" />
    <circle
       r="39"
       cy="410.19748"
       cx="621"
       id="path5445"
       style="opacity:1;fill:#f1af8e;fill-opacity:1;stroke:none;stroke-width:1;stroke-miterlimit:4;stroke-dasharray:none;stroke-opacity:1" />
    <g
       style="font-style:normal;font-variant:normal;font-weight:bold;font-stretch:normal;font-size:11.75632763px;line-height:125%;font-family:sans-serif;-inkscape-font-specification:'sans-serif Bold';text-align:center;letter-spacing:0px;word-spacing:0px;text-anchor:middle;fill:#392a58;fill-opacity:1;stroke:none;stroke-width:1px;stroke-linecap:butt;stroke-linejoin:miter;stroke-opacity:1"
       id="text5485">
      <path
         d="m 594.17176,405.988 q 0.69459,0 0.99309,-0.25831 0.30424,-0.25832 0.30424,-0.84958 0,-0.58552 -0.30424,-0.8381 -0.2985,-0.25258 -0.99309,-0.25258 l -0.92995,0 0,2.19857 0.92995,0 z m -0.92995,1.52695 0,3.24332 -2.21005,0 0,-8.57041 3.37535,0 q 1.69342,0 2.47985,0.5683 0.79218,0.5683 0.79218,1.79675 0,0.84957 -0.41331,1.39491 -0.40757,0.54534 -1.23418,0.80366 0.45349,0.10332 0.80939,0.47071 0.36165,0.36164 0.72903,1.10215 l 1.19974,2.43393 -2.35356,0 -1.04475,-2.12968 q -0.31572,-0.64293 -0.64292,-0.87828 -0.32147,-0.23536 -0.86106,-0.23536 l -0.62571,0 z"
         id="path4649"
         inkscape:connector-curvature="0"
         style="fill:#683b25;fill-opacity:1" />
      <path
         d="m 600.07862,402.18786 5.96427,0 0,1.67046 -3.75421,0 0,1.59583 3.53034,0 0,1.67045 -3.53034,0 0,1.96322 3.8805,0 0,1.67045 -6.09056,0 0,-8.57041 z"
         id="path4651"
         inkscape:connector-curvature="0"
         style="fill:#683b25;fill-opacity:1" />
      <path
         d="m 614.9118,410.28756 q -0.60848,0.31572 -1.26862,0.47645 -0.66015,0.16073 -1.3777,0.16073 -2.14117,0 -3.39257,-1.194 -1.25141,-1.19974 -1.25141,-3.24906 0,-2.05506 1.25141,-3.24907 1.2514,-1.19974 3.39257,-1.19974 0.71755,0 1.3777,0.16073 0.66014,0.16073 1.26862,0.47646 l 0,1.77378 q -0.61422,-0.41905 -1.21122,-0.61422 -0.597,-0.19518 -1.25715,-0.19518 -1.18252,0 -1.85988,0.75773 -0.67737,0.75774 -0.67737,2.08951 0,1.32603 0.67737,2.08376 0.67736,0.75773 1.85988,0.75773 0.66015,0 1.25715,-0.19517 0.597,-0.19517 1.21122,-0.61422 l 0,1.77378 z"
         id="path4653"
         inkscape:connector-curvature="0"
         style="fill:#683b25;fill-opacity:1" />
      <path
         d="m 616.72577,402.18786 5.96427,0 0,1.67046 -3.75422,0 0,1.59583 3.53034,0 0,1.67045 -3.53034,0 0,1.96322 3.88051,0 0,1.67045 -6.09056,0 0,-8.57041 z"
         id="path4655"
         inkscape:connector-curvature="0"
         style="fill:#683b25;fill-opacity:1" />
      <path
         d="m 624.76232,402.18786 2.21005,0 0,8.57041 -2.21005,0 0,-8.57041 z"
         id="path4657"
         inkscape:connector-curvature="0"
         style="fill:#683b25;fill-opacity:1" />
      <path
         d="m 628.10323,402.18786 2.22153,0 2.2732,6.32592 2.26745,-6.32592 2.22154,0 -3.17444,8.57041 -2.63484,0 -3.17444,-8.57041 z"
         id="path4659"
         inkscape:connector-curvature="0"
         style="fill:#683b25;fill-opacity:1" />
      <path
         d="m 638.2178,402.18786 5.96427,0 0,1.67046 -3.75421,0 0,1.59583 3.53034,0 0,1.67045 -3.53034,0 0,1.96322 3.8805,0 0,1.67045 -6.09056,0 0,-8.57041 z"
         id="path4661"
         inkscape:connector-curvature="0"
         style="fill:#683b25;fill-opacity:1" />
      <path
         d="m 649.39435,405.988 q 0.69459,0 0.99309,-0.25831 0.30424,-0.25832 0.30424,-0.84958 0,-0.58552 -0.30424,-0.8381 -0.2985,-0.25258 -0.99309,-0.25258 l -0.92994,0 0,2.19857 0.92994,0 z m -0.92994,1.52695 0,3.24332 -2.21005,0 0,-8.57041 3.37535,0 q 1.69342,0 2.47985,0.5683 0.79217,0.5683 0.79217,1.79675 0,0.84957 -0.4133,1.39491 -0.40757,0.54534 -1.23419,0.80366 0.45349,0.10332 0.8094,0.47071 0.36164,0.36164 0.72903,1.10215 l 1.19974,2.43393 -2.35356,0 -1.04475,-2.12968 q -0.31573,-0.64293 -0.64293,-0.87828 -0.32146,-0.23536 -0.86106,-0.23536 l -0.6257,0 z"
         id="path4663"
         inkscape:connector-curvature="0"
         style="fill:#683b25;fill-opacity:1" />
      <path
         d="m 604.60779,416.8833 2.11821,0 1.48102,6.22833 1.46954,-6.22833 2.12969,0 1.46954,6.22833 1.48102,-6.22833 2.10099,0 -2.02062,8.57041 -2.54874,0 -1.55564,-6.51535 -1.53843,6.51535 -2.54874,0 -2.03784,-8.57041 z"
         id="path4665"
         inkscape:connector-curvature="0"
         style="fill:#683b25;fill-opacity:1" />
      <path
         d="m 618.31012,416.8833 2.21005,0 0,8.57041 -2.21005,0 0,-8.57041 z"
         id="path4667"
         inkscape:connector-curvature="0"
         style="fill:#683b25;fill-opacity:1" />
      <path
         d="m 622.67282,416.8833 2.46837,0 3.11703,5.87816 0,-5.87816 2.09524,0 0,8.57041 -2.46837,0 -3.11703,-5.87817 0,5.87817 -2.09524,0 0,-8.57041 z"
         id="path4669"
         inkscape:connector-curvature="0"
         style="fill:#683b25;fill-opacity:1" />
      <path
         d="m 638.46464,417.1531 0,1.81396 q -0.70607,-0.31572 -1.37769,-0.47645 -0.67163,-0.16073 -1.26863,-0.16073 -0.79218,0 -1.17104,0.21813 -0.37887,0.21814 -0.37887,0.67737 0,0.34442 0.25258,0.5396 0.25832,0.18943 0.92994,0.3272 l 0.94143,0.18943 q 1.42936,0.28702 2.0321,0.87254 0.60274,0.58552 0.60274,1.66472 0,1.41787 -0.84384,2.11246 -0.8381,0.68885 -2.56596,0.68885 -0.81513,0 -1.63601,-0.15499 -0.82087,-0.15499 -1.64175,-0.45923 l 0,-1.86563 q 0.82088,0.43627 1.58435,0.66014 0.76921,0.21814 1.48102,0.21814 0.72329,0 1.1079,-0.2411 0.3846,-0.2411 0.3846,-0.68885 0,-0.40182 -0.26406,-0.61996 -0.25831,-0.21813 -1.03901,-0.39035 l -0.85532,-0.18943 q -1.28584,-0.27554 -1.88285,-0.87828 -0.59126,-0.60274 -0.59126,-1.62453 0,-1.28011 0.82662,-1.96896 0.82662,-0.68884 2.37652,-0.68884 0.70607,0 1.45232,0.10906 0.74626,0.10333 1.54417,0.31573 z"
         id="path4671"
         inkscape:connector-curvature="0"
         style="fill:#683b25;fill-opacity:1" />
    </g>
  </g>
</svg>
